<?xml version="1.0" encoding="UTF-8"?>
<svg width="50px" height="50px" viewBox="0 0 50 50" version="1.1" xmlns="http://www.w3.org/2000/svg" xmlns:xlink="http://www.w3.org/1999/xlink">
    <!-- Generator: Sketch 51 (57462) - http://www.bohemiancoding.com/sketch -->
    <title>AirPressure</title>
    <desc>Created with Sketch.</desc>
    <defs></defs>
    <g id="AirPressure" stroke="none" stroke-width="1" fill="none" fill-rule="evenodd" opacity="0.664118304">
        <g id="weather-2-copy" transform="translate(13.000000, 14.000000)" fill="#FFFFFF" fill-rule="nonzero">
            <path d="M12.1000144,16.335033 C11.8687804,14.4630779 10.0229874,13 7.78764033,13 C6.01514366,13 4.44787674,13.9128606 3.78107127,15.3011383 C3.77444274,15.3011383 3.76819661,15.3011383 3.76156807,15.3011383 C1.68721797,15.301253 0,16.8036814 0,18.6506265 C0,20.4974569 1.68721797,22 3.76156807,22 C3.79751515,22 3.83346222,21.9995411 3.86902688,21.9988528 C3.88100924,21.9996558 3.89350148,22 3.90548384,22 L11.9571185,22 C11.9850348,22 12.0125687,21.9975908 12.0397202,21.9927724 C13.7047581,21.888947 15,20.6556616 15,19.1619524 C14.9998725,17.6829278 13.7232415,16.4645566 12.1000144,16.335033 Z M11.9331537,21.1790335 C11.9220637,21.1798366 11.9109736,21.1806397 11.8998836,21.1817869 L3.9596594,21.1817869 C3.93480238,21.1790335 3.90905305,21.1777715 3.88547075,21.1793777 C2.265303,21.2352484 0.909129537,20.0831878 0.909129537,18.6506265 C0.909129537,17.254777 2.18881987,16.1194661 3.76156807,16.1194661 C3.85704452,16.1194661 3.95111878,16.1234815 4.04430073,16.1313975 C4.25067773,16.1529656 4.45093607,16.0343408 4.5183687,15.854109 C4.97114886,14.6364262 6.28461924,13.8182131 7.78751285,13.8182131 C9.6775386,13.8182131 11.215232,15.125725 11.215232,16.7361088 C11.215232,16.8479649 11.2662208,16.9550026 11.355961,17.0320973 C11.4457012,17.109192 11.5653973,17.1515252 11.6910846,17.1447565 C11.7314932,17.1431503 11.7722842,17.1420031 11.8135851,17.1420031 C13.0693107,17.1420031 14.090743,18.0480949 14.090743,19.1618376 C14.090743,20.2377213 13.1431169,21.1238512 11.9331537,21.1790335 Z" id="Shape"></path>
            <path d="M11.9574234,8.99277228 C11.9853404,8.99759076 12.013385,9 12.0421943,9 L20.0945441,9 C20.1065267,9 20.1188918,8.9995411 20.131002,8.99885274 C20.1664401,8.99965582 20.2025155,9 20.2384635,9 C22.3128665,9 24,7.49743779 24,5.65058383 C24,3.80361513 22.312739,2.30116765 20.2384635,2.30116765 C20.2318348,2.30116765 20.2255885,2.30116765 20.2189598,2.30116765 C19.5522648,0.912872221 17.9848305,0 16.2124161,0 C13.9782868,0 12.1329566,1.46171987 11.900442,3.33507546 C10.2770461,3.46448603 9.00000008,4.68298746 9.00000008,6.16191617 C8.99961766,7.6551856 10.2936178,8.88825719 11.9574234,8.99277228 Z M12.1859863,4.14205588 C12.2272882,4.14205588 12.2680803,4.14320314 12.3084899,4.1448093 C12.4318858,4.15043086 12.5534971,4.10763818 12.6436221,4.03054252 C12.7333646,3.95344687 12.7843546,3.84480165 12.7843546,3.73294412 C12.7843546,2.12575209 14.3219598,0.818223537 16.2121612,0.818223537 C17.7152206,0.818223537 19.0287244,1.63644707 19.4815161,2.85414542 C19.5485681,3.03518254 19.751381,3.14738425 19.9555962,3.13143739 C20.0483981,3.12340659 20.1428572,3.11950591 20.238336,3.11950591 C21.8111243,3.11950591 23.0908473,4.25494595 23.0908473,5.65069855 C23.0903374,7.0832781 21.728138,8.24303998 20.1144302,8.17948195 C20.1078015,8.17902305 20.1006629,8.17902305 20.0940342,8.17902305 C20.0763151,8.17902305 20.0589785,8.17982613 20.0416419,8.18177646 L12.1001955,8.18177646 C12.0891052,8.18062921 12.077505,8.17982613 12.0664146,8.17902305 C10.8562931,8.12384 9.90864289,7.23781358 9.90864289,6.16191617 C9.90877037,5.04815929 10.9302287,4.14205588 12.1859863,4.14205588 Z" id="Shape"></path>
            <path d="M7.95310078,9.59332339 L3.40243137,10.1499358 C3.14894478,10.1808255 2.97020423,10.3954966 3.00413243,10.6293241 C3.0349408,10.8439953 3.23409027,11 3.46313816,11 C3.48354709,11 3.50382601,10.9988027 3.52475491,10.9962885 L8.5976067,10.3758613 C8.72980971,10.3595784 8.84797347,10.2920522 8.92167957,10.1899248 C8.99590564,10.0881565 9.01852445,9.96148498 8.98459624,9.84307464 L7.67816531,5.31738089 C7.61212881,5.08930029 7.35812223,4.95424784 7.1110053,5.01423124 C6.86336839,5.07505274 6.71621617,5.30899997 6.7818627,5.53660166 L7.95310078,9.59332339 Z" id="Shape"></path>
            <path d="M0.463087999,9 C0.48349471,9 0.503771441,8.99880262 0.524698068,8.99628813 L5.59765029,8.37592647 C5.72983898,8.35964212 5.84798993,8.29210999 5.92168805,8.18997363 C5.99590609,8.08819648 6.01852244,7.96151387 5.98459791,7.84309316 L4.67830849,3.31700347 C4.61266907,3.08890291 4.35869001,2.95503603 4.11120991,3.0138273 C3.86359982,3.07465411 3.71646354,3.30862182 3.78210296,3.53624342 L4.95308419,7.59320032 L0.402387785,8.14974172 C0.148928643,8.18063408 -0.0297925463,8.395324 0.00413198495,8.62917196 C0.0349370191,8.84386188 0.234064919,9 0.463087999,9 Z" id="Shape"></path>
            <path d="M16.0468085,13.4068007 L20.5976035,12.8501327 C20.8510681,12.8192399 21.0297932,12.6045474 20.9958679,12.3706965 C20.9623326,12.136726 20.7287552,11.9725634 20.4754205,12.0038153 L15.4023584,12.6241846 C15.2701669,12.6404692 15.1520134,12.7080021 15.0783136,12.8101398 C15.004094,12.9119182 14.9814772,13.0386023 15.0154024,13.1570245 L16.3217201,17.6826909 C16.3769624,17.8740343 16.5642663,18 16.7693777,18 C16.8087622,18 16.8490566,17.9954499 16.888831,17.9858708 C17.1364465,17.9250432 17.2835859,17.6910726 17.2179451,17.4634482 L16.0468085,13.4068007 Z" id="Shape"></path>
            <path d="M22.4753019,15.0035413 L17.4023497,15.6239389 C17.270161,15.6402242 17.1520101,15.7077603 17.0783119,15.8099026 C17.0040939,15.9116856 16.9814776,16.0383756 17.0154021,16.1568032 L18.3216915,20.6826764 C18.3769326,20.8740285 18.5642324,21 18.7693393,21 C18.808723,21 18.8490165,20.9954497 18.8887901,20.9858701 C19.1364002,20.9250398 19.2835365,20.6910585 19.217897,20.4634237 L18.0469158,16.4065907 L22.5976122,15.8498973 C22.8510714,15.8190032 23.0297925,15.6043008 22.995868,15.3704393 C22.9623334,15.1366975 22.729281,14.9736051 22.4753019,15.0035413 Z" id="Shape"></path>
        </g>
    </g>
</svg>