<?xml version="1.0" encoding="UTF-8"?>
<svg width="50px" height="50px" viewBox="0 0 50 50" version="1.1" xmlns="http://www.w3.org/2000/svg" xmlns:xlink="http://www.w3.org/1999/xlink">
    <!-- Generator: Sketch 51 (57462) - http://www.bohemiancoding.com/sketch -->
    <title>ChanceOfRain</title>
    <desc>Created with Sketch.</desc>
    <defs></defs>
    <g id="ChanceOfRain" stroke="none" stroke-width="1" fill="none" fill-rule="evenodd" opacity="0.66">
        <g id="Rain-595b40b65ba036ed117d22b2-Copy" transform="translate(9.000000, 13.000000)" fill="#FFFFFF" fill-rule="nonzero">
            <path d="M16,0 C12.774,0 9.97175,2.25675 9.21875,5.34375 C7.97175,5.82675 6.93725,6.81425 6.40625,8.03125 C2.90925,7.77225 0,10.553 0,14 C0,17.309 2.691,20 6,20 L8,20 L9,18 L6,18 C3.794,18 2,16.206 2,14 C2,11.794 3.794,10 6,10 C6.277,10 6.559,10.02275 6.875,10.09375 L7.875,10.3125 L8.0625,9.34375 C8.3085,8.23775 9.2055,7.35775 10.3125,7.09375 L10.96875,6.9375 L11.0625,6.28125 C11.4215,3.84825 13.543,2 16,2 C17.894,2 19.61175,3.053 20.46875,4.75 L20.84375,5.53125 L21.6875,5.25 C22.1545,5.086 22.582,5 23,5 C25.206,5 27,6.794 27,9 C27,9.038 27.005,9.088 27,9.125 C26.991,9.193 26.97475,9.2425 26.96875,9.3125 L26.90625,10.03125 L27.5625,10.3125 C29.0395,10.9425 30,12.395 30,14 C30,16.206 28.206,18 26,18 L24,18 L25,20 L26,20 C29.309,20 32,17.309 32,14 C32,11.835 30.845,9.8755 29,8.8125 C28.895,5.5955 26.242,3 23,3 C22.611,3 22.2085,3.04 21.8125,3.125 C20.5225,1.178 18.372,0 16,0 Z M18,10 C18,10 16,12.895 16,14 C16,15.105 16.895,16 18,16 C19.105,16 20,15.105 20,14 C20,12.895 18,10 18,10 Z M13,15 C13,15 11,17.895 11,19 C11,20.105 11.895,21 13,21 C14.105,21 15,20.105 15,19 C15,17.895 13,15 13,15 Z M21,18 C21,18 19,20.895 19,22 C19,23.105 19.895,24 21,24 C22.105,24 23,23.105 23,22 C23,20.895 21,18 21,18 Z" id="Shape"></path>
        </g>
    </g>
</svg>