<svg viewBox="0 0 50 50" version="1.1" xmlns="http://www.w3.org/2000/svg" xmlns:xlink="http://www.w3.org/1999/xlink">
    <g id="clear-night" stroke="none" stroke-width="1" fill="none" fill-rule="evenodd">
        <path d="M20.9156252,7.43102644 C18.4870324,9.93423725 17,13.2994493 17,17 C17,24.7319865 23.4918711,31 31.5,31 C32.7370894,31 33.9379952,30.8504212 35.0843748,30.5689736 C35.0724115,30.5813044 35.0604254,30.5936143 35.0484166,30.6059032 C32.4045885,33.3113842 28.6565357,35 24.5,35 C16.4918711,35 10,28.7319865 10,21 C10,14.547914 14.520516,9.11524336 20.6703769,7.4934638 C20.7518426,7.47198046 20.8335944,7.45116585 20.9156252,7.43102644 Z" id="Combined-Shape" fill="#FFFFFF"></path>
        <polygon id="Star" fill="#FFFFFF" points="29 11.5 27.2366442 12.427051 27.5734152 10.4635255 26.1468305 9.07294902 28.1183221 8.78647451 29 7 29.8816779 8.78647451 31.8531695 9.07294902 30.4265848 10.4635255 30.7633558 12.427051"></polygon>
        <polygon id="Star-Copy" fill="#FFFFFF" points="31 22.5 29.2366442 23.427051 29.5734152 21.4635255 28.1468305 20.072949 30.1183221 19.7864745 31 18 31.8816779 19.7864745 33.8531695 20.072949 32.4265848 21.4635255 32.7633558 23.427051"></polygon>
        <polygon id="Star-Copy-2" fill="#FFFFFF" points="38 13.5 36.2366442 14.427051 36.5734152 12.4635255 35.1468305 11.072949 37.1183221 10.7864745 38 9 38.8816779 10.7864745 40.8531695 11.072949 39.4265848 12.4635255 39.7633558 14.427051"></polygon>
        <polygon id="Star-Copy-3" fill="#FFFFFF" points="39 27.5 37.2366442 28.427051 37.5734152 26.4635255 36.1468305 25.072949 38.1183221 24.7864745 39 23 39.8816779 24.7864745 41.8531695 25.072949 40.4265848 26.4635255 40.7633558 28.427051"></polygon>
        <polygon id="Star-Copy-4" fill="#FFFFFF" points="33 41.5 31.2366442 42.427051 31.5734152 40.4635255 30.1468305 39.072949 32.1183221 38.7864745 33 37 33.8816779 38.7864745 35.8531695 39.072949 34.4265848 40.4635255 34.7633558 42.427051"></polygon>
        <polygon id="Star-Copy-5" fill="#FFFFFF" points="19 45.5 17.2366442 46.427051 17.5734152 44.4635255 16.1468305 43.072949 18.1183221 42.7864745 19 41 19.8816779 42.7864745 21.8531695 43.072949 20.4265848 44.4635255 20.7633558 46.427051"></polygon>
        <polygon id="Star-Copy-6" fill="#FFFFFF" points="9 35.5 7.23664424 36.427051 7.57341523 34.4635255 6.14683045 33.072949 8.11832212 32.7864745 9 31 9.88167788 32.7864745 11.8531695 33.072949 10.4265848 34.4635255 10.7633558 36.427051"></polygon>
        <polygon id="Star-Copy-7" fill="#FFFFFF" points="9 11.5 7.23664424 12.427051 7.57341523 10.4635255 6.14683045 9.07294902 8.11832212 8.78647451 9 7 9.88167788 8.78647451 11.8531695 9.07294902 10.4265848 10.4635255 10.7633558 12.427051"></polygon>
    </g>
</svg>