<svg viewBox="0 0 50 50" version="1.1" xmlns="http://www.w3.org/2000/svg" xmlns:xlink="http://www.w3.org/1999/xlink">
    <g id="cloudy" stroke="none" stroke-width="1" fill="none" fill-rule="evenodd">
        <path d="M26.0517688,14.0514842 C26.032003,14.0049156 26.0714311,14.0990877 26.0517688,14.0514842 L26.0517688,14.0514842 Z" id="Path" fill="#FFFFFF" fill-rule="nonzero"></path>
        <path d="M45.2112407,23.192782 C44.1991498,21.9474186 42.8274048,21.0311394 41.3030912,20.5717744 C41.0801214,15.8075535 37.1333396,12 32.3137985,12 C30.7853667,12 29.2754668,12.3902544 27.9473549,13.1285126 C27.5924073,13.3258454 27.4646458,13.7735449 27.661926,14.1284108 C27.8594024,14.4833746 28.307009,14.6111067 28.6620546,14.4137739 C29.7721973,13.7966798 31.0349086,13.4705366 32.3137985,13.4705366 C36.4649203,13.4705366 39.8422172,16.8469575 39.8422172,20.9972212 C39.8422172,21.0401581 39.8413347,21.0829968 39.8403542,21.1259336 C39.8330003,21.4763882 40.0742078,21.7833177 40.4166047,21.8590943 C41.8442392,22.1751405 43.1416609,22.978196 44.0697214,24.1200406 C45.0108227,25.2780599 45.5291247,26.7392837 45.5291247,28.2346217 C45.5291247,31.8356276 42.598748,34.7653293 38.9969125,34.7653293 L38.8056134,34.7653293 C39.5026637,33.6775969 39.9087944,32.3864539 39.9087944,31.0014968 C39.9087944,28.2687358 38.2929984,25.777813 35.8376828,24.6442029 C35.7873823,21.0749584 32.8674971,18.1871152 29.2857622,18.1871152 C28.4776191,18.1871152 27.6760455,18.3376881 26.9263413,18.6270704 C26.3492083,16.8776407 25.2686772,15.3076044 23.8234915,14.1394881 C22.1168015,12.7600207 19.9660348,12.0002941 17.7673209,12.0002941 C12.5913614,12.0002941 8.35503256,16.0998767 8.13627896,21.2218062 C6.48920449,21.7096977 5.00617073,22.6956758 3.91416762,24.0392645 C2.67989132,25.5584235 2,27.4748951 2,29.4356759 C2,34.1580382 5.8428469,38 10.5662972,38 L32.908875,38 C34.6874369,38 36.3122536,37.3322248 37.5483929,36.2357679 L38.9970105,36.2357679 C43.4098326,36.2357679 47,32.6464274 47,28.2346217 C47,26.4026513 46.3647223,24.6120493 45.2112407,23.192782 Z M32.865528,36.5999022 L10.5021078,36.5999022 L10.5021078,36.6 C6.58601156,36.6 3.4,33.4257823 3.4,29.5241826 C3.4,27.9041709 3.96343814,26.32112 4.98657742,25.0665105 C5.99558413,23.829208 7.40609327,22.9590678 8.95841883,22.6164482 C9.29985783,22.5410602 9.54099483,22.2366724 9.53510626,21.8881861 L9.53461555,21.8600256 C9.53392855,21.8221849 9.53324155,21.784442 9.53324155,21.7464058 C9.53324155,17.254413 13.2013308,13.6 17.7099155,13.6 C19.6019135,13.6 21.3780048,14.2251047 22.8461238,15.4075528 C24.2728265,16.5566581 25.2806555,18.165034 25.6839245,19.9362129 C25.7352532,20.1617903 25.8904171,20.3499182 26.1025038,20.4439821 C26.3144923,20.5379482 26.5586718,20.5268992 26.7613368,20.413866 C27.5155646,19.9932184 28.3723518,19.7708676 29.2391495,19.7708676 C32.043876,19.7708676 34.3256974,22.0442423 34.3256974,24.8385864 C34.3256974,24.9388104 34.3215754,25.0470524 34.3128407,25.1792503 C34.2912493,25.5029984 34.4857684,25.8023994 34.791189,25.9153348 C36.949743,26.7137049 38.4,28.7916182 38.4,31.0859176 C38.4,34.1262751 35.9172802,36.5999022 32.865528,36.5999022 Z" id="Shape" fill="#FFFFFF" fill-rule="nonzero"></path>
    </g>
</svg>