<svg viewBox="0 0 50 50" version="1.1" xmlns="http://www.w3.org/2000/svg" xmlns:xlink="http://www.w3.org/1999/xlink">
    <g id="fog" stroke="none" stroke-width="1" fill="none" fill-rule="evenodd">
        <path d="M11,17 C14.3084804,17 17,14.3086544 17,10.9998878 C17,7.69112121 14.3084804,5 11,5 C7.69151959,5 5,7.69134556 5,11.0001122 C5,14.3088788 7.69151959,17 11,17 Z M11,7 C13.2055884,7 15,8.79441158 15,11 C15,13.2055884 13.2055884,15 11,15 C8.79441158,15 7,13.2055884 7,11 C7,8.79441158 8.79441158,7 11,7 Z" id="Shape" fill="#FFFFFF" fill-rule="nonzero"></path>
        <path d="M10,24.3889818 C10,28.0339957 12.8526322,31 16.3588486,31 L33.8460167,31 C33.9115534,31 33.9759756,30.9923658 34.0386145,30.9773155 C37.9538783,30.6643123 41,27.2873687 41,23.2222545 C41,19.2064356 37.9788447,15.8499953 34.1563131,15.4785359 C32.9441061,12.2261392 29.6293729,10 25.8975674,10 C21.196977,10 17.3508165,13.4820778 17.1613395,17.8298763 C16.8962946,17.7954132 16.6283518,17.7777455 16.3590715,17.7777455 C12.8526322,17.7779636 10,20.7435317 10,24.3889818 Z M17.9617077,19.5401156 C18.2083363,19.6215417 18.4785462,19.5717203 18.6810413,19.4075512 C18.8837528,19.2436016 18.9914906,18.987691 18.9685584,18.7254155 C18.9516839,18.5366649 18.9430302,18.3457196 18.9430302,18.1521405 C18.9430302,14.4840147 22.0576909,11.5 25.8858441,11.5 C29.0162977,11.5 31.7729141,13.52007 32.5887358,16.4123432 C32.6821951,16.7428761 32.9770679,16.9728884 33.3160741,16.9794728 C36.4504219,17.0378538 39,19.8458476 39,23.2391877 C39,26.5552717 36.605971,29.3007145 33.549506,29.4901235 C33.521598,29.4916599 33.4936901,29.495391 33.4662148,29.5 L16.6286147,29.5 C14.0762241,29.5 12,27.217874 12,24.4129528 C12,21.6080317 14.0762241,19.3259056 16.6286147,19.3259056 C17.0829307,19.3263446 17.5311892,19.3981137 17.9617077,19.5401156 Z" id="Shape" fill="#FFFFFF" fill-rule="nonzero"></path>
        <path d="M23.2615988,44 L7.7384012,44 C7.33068612,44 7,44.3354599 7,44.75 C7,45.1645401 7.33068612,45.5 7.7384012,45.5 L23.2615988,45.5 C23.6693139,45.5 24,45.1645401 24,44.75 C24,44.3354599 23.6693139,44 23.2615988,44 Z" id="Path" fill="#FFFFFF" fill-rule="nonzero"></path>
        <path d="M43.2615988,44 L27.7384012,44 C27.3306861,44 27,44.3354599 27,44.75 C27,45.1645401 27.3306861,45.5 27.7384012,45.5 L43.2615988,45.5 C43.6693139,45.5 44,45.1645401 44,44.75 C44,44.3354599 43.6693139,44 43.2615988,44 Z" id="Path" fill="#FFFFFF" fill-rule="nonzero"></path>
        <path d="M7.77380856,38.5 L30.2261914,38.5 C30.653457,38.5 31,38.1645401 31,37.75 C31,37.3354599 30.653457,37 30.2261914,37 L7.77380856,37 C7.34654298,37 7,37.3354599 7,37.75 C7,38.1645401 7.34654298,38.5 7.77380856,38.5 Z" id="Path" fill="#FFFFFF" fill-rule="nonzero"></path>
        <path d="M33.732539,37 C33.3280608,37 33,37.3354599 33,37.75 C33,38.1645401 33.3280608,38.5 33.732539,38.5 L43.267461,38.5 C43.6719392,38.5 44,38.1645401 44,37.75 C44,37.3354599 43.6719392,37 43.267461,37 L33.732539,37 Z" id="Path" fill="#FFFFFF" fill-rule="nonzero"></path>
        <path d="M7.76276311,42.5 L43.2372369,42.5 C43.6584036,42.5 44,42.1645401 44,41.75 C44,41.3354599 43.6584036,41 43.2372369,41 L7.76276311,41 C7.34159638,41 7,41.3354599 7,41.75 C7,42.1645401 7.34159638,42.5 7.76276311,42.5 Z" id="Path" fill="#FFFFFF" fill-rule="nonzero"></path>
        <path d="M7,33.75 C7,34.1645401 7.34159638,34.5 7.76276311,34.5 L43.2372369,34.5 C43.6584036,34.5 44,34.1645401 44,33.75 C44,33.3354599 43.6584036,33 43.2372369,33 L7.76276311,33 C7.34159638,33 7,33.3354599 7,33.75 Z" id="Path" fill="#FFFFFF" fill-rule="nonzero"></path>
    </g>
</svg>