<svg viewBox="0 0 50 50" version="1.1" xmlns="http://www.w3.org/2000/svg" xmlns:xlink="http://www.w3.org/1999/xlink">
    <g id="hail" stroke="none" stroke-width="1" fill="none" fill-rule="evenodd">
        <path d="M36,34.9360374 L36,39.0639626 C36,39.5787832 36.45,40 37,40 C37.56,40 38,39.5787832 38,39.0639626 L38,34.9360374 C38,34.4212168 37.55,34 37,34 C36.45,34 36,34.4212168 36,34.9360374 Z" id="Path" fill="#FFFFFF" fill-rule="nonzero"></path>
        <path d="M37,41.0103734 C35.4024768,41.0103734 34,42.4072484 34,44.0103734 C34,45.6322484 35.374613,47.0103734 37,47.0103734 C38.6811146,47.0103734 40,45.6884984 40,44.0103734 C40,42.3884984 38.625387,41.0103734 37,41.0103734 Z M37,45.0103734 C36.5284553,45.0103734 36,44.6020401 36,44.0103734 C36,43.5187068 36.504065,43.0103734 37,43.0103734 C37.5934959,43.0103734 38,43.5437068 38,44.0103734 C38,44.5770401 37.5691057,45.0103734 37,45.0103734 Z" id="Shape" fill="#FFFFFF" fill-rule="nonzero"></path>
        <path d="M19,34.9360374 L19,39.0639626 C19,39.5787832 19.45,40 20,40 C20.55,40 21,39.5787832 21,39.0639626 L21,34.9360374 C21,34.4212168 20.55,34 20,34 C19.45,34 19,34.4212168 19,34.9360374 Z" id="Path" fill="#FFFFFF" fill-rule="nonzero"></path>
        <path d="M20,41.0103734 C18.374613,41.0103734 17,42.3791234 17,44.0103734 C17,45.6884984 18.3188854,47.0103734 20,47.0103734 C21.625387,47.0103734 23,45.6322484 23,44.0103734 C23,42.4166234 21.5975232,41.0103734 20,41.0103734 Z M20,45.0103734 C19.4308943,45.0103734 19,44.5853734 19,44.0103734 C19,43.5353734 19.4065041,43.0103734 20,43.0103734 C20.495935,43.0103734 21,43.5187068 21,44.0103734 C21,44.6020401 20.4715447,45.0103734 20,45.0103734 Z" id="Shape" fill="#FFFFFF" fill-rule="nonzero"></path>
        <path d="M28,31.9493671 L28,36.0506329 C28,36.5727848 28.45,37 29,37 C29.55,37 30,36.5727848 30,36.0506329 L30,31.9493671 C30,31.4272152 29.55,31 29,31 C28.45,31 28,31.4272152 28,31.9493671 Z" id="Path" fill="#FFFFFF" fill-rule="nonzero"></path>
        <path d="M29,38.0103734 C27.374613,38.0103734 26,39.3884984 26,41.0103734 C26,42.6322484 27.374613,44.0103734 29,44.0103734 C30.6811146,44.0103734 32,42.6884984 32,41.0103734 C32,39.3322484 30.6811146,38.0103734 29,38.0103734 Z M29,42.0103734 C28.5284553,42.0103734 28,41.6020401 28,41.0103734 C28,40.4187068 28.5284553,40.0103734 29,40.0103734 C29.5691057,40.0103734 30,40.4437068 30,41.0103734 C30,41.5770401 29.5691057,42.0103734 29,42.0103734 Z" id="Shape" fill="#FFFFFF" fill-rule="nonzero"></path>
        <path d="M13,36.0506329 L13,31.9493671 C13,31.4272152 12.55,31 12,31 C11.45,31 11,31.4272152 11,31.9493671 L11,36.0506329 C11,36.5727848 11.45,37 12,37 C12.55,37 13,36.5727848 13,36.0506329 Z" id="Path" fill="#FFFFFF" fill-rule="nonzero"></path>
        <path d="M12,38.0103734 C10.3188854,38.0103734 9,39.3322484 9,41.0103734 C9,42.6884984 10.3188854,44.0103734 12,44.0103734 C13.625387,44.0103734 15,42.6322484 15,41.0103734 C15,39.3884984 13.625387,38.0103734 12,38.0103734 Z M12,42.0103734 C11.4308943,42.0103734 11,41.5770401 11,41.0103734 C11,40.4437068 11.4308943,40.0103734 12,40.0103734 C12.4715447,40.0103734 13,40.4187068 13,41.0103734 C13,41.6020401 12.4715447,42.0103734 12,42.0103734 Z" id="Shape" fill="#FFFFFF" fill-rule="nonzero"></path>
        <g id="Cloud-595b40b85ba036ed117de24e" transform="translate(4.000000, 3.000000)" fill="#FFFFFF" fill-rule="nonzero">
            <path d="M24.36,0 C19.9793009,0 16.2726967,2.67669002 14.49,6.46176763 C13.5414056,5.79538253 12.4423933,5.30883813 11.20875,5.30883813 C8.07966163,5.30883813 5.58273173,7.84090725 5.4075,10.9930487 C2.27778676,12.1471562 0,15.1293049 0,18.714995 C0,23.2867125 3.63466664,27 8.11125,27 L34.51875,27 C38.639123,27 42,23.5663765 42,19.3584906 C42,15.4545713 39.066725,12.3515758 35.35875,11.9046673 C35.3719296,11.6978281 35.41125,11.5025272 35.41125,11.2879841 C35.41125,5.06719527 30.451181,0 24.36,0 Z M24.3043478,2 C29.401795,2 33.5203804,6.17538661 33.5203804,11.3412969 C33.5203804,11.7223574 33.4906661,12.1007778 33.4429348,12.4926052 L33.3138587,13.4345848 L34.2432065,13.4345848 L34.294837,13.4345848 C37.454323,13.4345848 40,16.0156756 40,19.2172924 C40,22.4189091 37.4544494,25 34.294837,25 L8.32472826,25 C4.81490444,25 2,22.1459034 2,18.589306 C2,15.6282508 3.96952802,13.1379751 6.64673913,12.3879408 L7.26630435,12.2309443 L7.24048913,11.5506257 C7.2363587,11.433389 7.24048913,11.3729633 7.24048913,11.367463 C7.24048913,9.04180853 9.07549509,7.18088737 11.3709239,7.18088737 C12.5182893,7.18088737 13.564483,7.64973528 14.3138587,8.41069397 L15.2173913,9.35267349 L15.65625,8.12286689 C16.9553552,4.56438058 20.333247,2 24.3043478,2 Z" id="Shape"></path>
        </g>
    </g>
</svg>