<svg viewBox="0 0 50 50" version="1.1" xmlns="http://www.w3.org/2000/svg" xmlns:xlink="http://www.w3.org/1999/xlink">
    <defs></defs>
    <g id="Humidity-Artboard" stroke="none" stroke-width="1" fill="none" fill-rule="evenodd" opacity="0.66">
        <g id="hunidity-copy" transform="translate(13.000000, 13.000000)" fill="#FFFFFF" fill-rule="nonzero">
            <path d="M15.3354245,0.129654984 C15.1449721,-0.0432183279 14.8549576,-0.0432183279 14.6645052,0.129654984 C14.4469123,0.325871818 9.46660365,4.87767112 7.15384706,10.1532602 C6.90456678,10.0657455 6.61759915,10.000168 6.24658497,10.000168 C5.37110402,10.000168 4.90137148,10.3268367 4.52393545,10.5895216 C4.19435862,10.8190193 3.93410963,11.0001426 3.37208058,11.0001426 C2.81103589,11.0001426 2.55078691,10.8189725 2.22167882,10.5899903 C1.84471154,10.3273054 1.374979,10.000168 0.500013672,10.000168 C0.223639751,10.000168 0,10.2238064 0,10.5001787 C0,10.776551 0.223639751,11.0001895 0.500013672,11.0001895 C1.06105836,11.0001895 1.32130734,11.1813596 1.65041543,11.4103417 C2.02738271,11.6730266 2.49711525,12.0001641 3.37208058,12.0001641 C4.24756153,12.0001641 4.71776282,11.6730266 5.09519885,11.4103417 C5.42477568,11.1813596 5.68502467,11.0001895 6.24658497,11.0001895 C6.80908278,11.0001895 7.06984738,11.1813596 7.39989297,11.4108104 C7.77732899,11.6734954 8.24753028,12.0001641 9.12352686,12.0001641 C9.99900782,12.0001641 10.4692091,11.6734954 10.8471608,11.4108104 C11.1767376,11.1813127 11.4375022,11.0001895 12,11.0001895 C12.2763739,11.0001895 12.5000137,10.776551 12.5000137,10.5001787 C12.5000137,10.2238064 12.2763739,10.000168 12,10.000168 C11.1240503,10.000168 10.6538021,10.3268367 10.2758974,10.5895216 C9.94632052,10.8190193 9.68555592,11.0001426 9.12357374,11.0001426 C8.59820079,11.0001426 8.33499869,10.8398785 8.03410924,10.6319899 C9.91477377,6.28854796 13.830696,2.31335241 15.0000352,1.18723841 C16.5571697,2.6876925 23.0000195,9.24333161 23.0000195,15.0000879 C23.0000195,19.4111698 19.4111429,23.0000254 15.0000352,23.0000254 C13.0089336,23.0000254 11.1249409,22.2583764 9.66661849,20.9488892 C10.2076476,20.8486714 10.5569588,20.6124706 10.8472076,20.4106757 C11.1767845,20.1811779 11.4375491,20.0000547 12.0000469,20.0000547 C12.2764208,20.0000547 12.5000605,19.7764162 12.5000605,19.5000439 C12.5000605,19.2236716 12.2764208,19.0000332 12.0000469,19.0000332 C11.1240972,19.0000332 10.653849,19.3267019 10.2759442,19.5893868 C9.9463674,19.8188846 9.68560279,20.0000078 9.12362061,20.0000078 C8.56112281,20.0000078 8.3003582,19.8188377 7.97078136,19.5893868 C7.59282972,19.3267019 7.12262843,19.0000332 6.24667872,19.0000332 C5.37119777,19.0000332 4.90146523,19.3267019 4.5240292,19.5893868 C4.19445237,19.8188846 3.93420338,20.0000078 3.37217433,20.0000078 C2.81112964,20.0000078 2.55088066,19.8188377 2.22177257,19.5898556 C1.84480529,19.3271706 1.37507275,19.0000332 0.500107421,19.0000332 C0.223733501,19.0000332 9.37496338e-05,19.2236716 9.37496338e-05,19.5000439 C9.37496338e-05,19.7764162 0.223733501,20.0000547 0.500107421,20.0000547 C1.0611521,20.0000547 1.32140109,20.1812248 1.65050918,20.4102069 C2.02747646,20.6728919 2.497209,21.0000293 3.37217433,21.0000293 C4.24765528,21.0000293 4.71785657,20.6728919 5.0952926,20.4102069 C5.42486943,20.1812248 5.68511842,20.0000547 6.24667872,20.0000547 C6.80917653,20.0000547 7.06994113,20.1812248 7.39998672,20.4106757 C7.6036578,20.5523774 7.84126625,20.7085634 8.14815567,20.8262185 C9.86377397,22.8416363 12.3507174,24 15.0000352,24 C19.9624376,24 24,19.9624613 24,15.0000879 C23.9999531,8.0455933 15.6889543,0.449479986 15.3354245,0.129654984 Z" id="Shape"></path>
            <path d="M0.516530476,17.0000234 C1.09610798,17.0000234 1.3649537,17.1811939 1.70493312,17.4101765 C2.09435264,17.6728619 2.57960172,18 3.48346952,18 C3.76897282,18 4,17.7763611 4,17.4999883 C4,17.2236154 3.76897282,16.9999766 3.48346952,16.9999766 C2.90389202,16.9999766 2.6350463,16.8188061 2.29506688,16.5898235 C1.90564736,16.3271381 1.42039828,16 0.516530476,16 C0.231027178,16 0,16.2236389 0,16.5000117 C0,16.7763846 0.231027178,17.0000234 0.516530476,17.0000234 Z" id="Shape"></path>
            <path d="M6.51265415,16 C6.22929342,16 6,16.2236336 6,16.5 C6,16.7763664 6.22929342,17 6.51265415,17 C7.08937205,17 7.35672886,17.1811662 7.69463748,17.4106122 C8.08214385,17.6732915 8.56423196,17.9999531 9.4623259,17.9999531 C10.3599393,17.9999531 10.8420274,17.6732915 11.2295337,17.4106122 C11.5674424,17.1811193 11.8347992,17 12.4115171,17 C12.9977508,17 13.2961062,17.1860411 13.6730875,17.4213931 C14.108125,17.692369 14.6012669,18 15.4873458,18 C15.7707066,18 16,17.7763664 16,17.5 C16,17.2236336 15.7707066,17 15.4873458,17 C14.9011121,17 14.6027567,16.8139589 14.2257754,16.5786069 C13.7907379,16.307631 13.297596,16 12.4115171,16 C11.5134231,16 11.0312869,16.3266617 10.6438286,16.589341 C10.30592,16.8188338 10.0385632,16.9999531 9.46237396,16.9999531 C8.88565606,16.9999531 8.61829926,16.8187869 8.27991003,16.589341 C7.89288426,16.3266148 7.41079616,16 6.51265415,16 Z" id="Shape"></path>
            <path d="M6.48120588,13 C5.57284198,13 5.08546634,13.3266693 4.69385387,13.5893548 C4.35189817,13.818853 4.08187427,13.9999766 3.49873548,13.9999766 C2.91661803,13.9999766 2.64659413,13.8188061 2.30512478,13.5898235 C1.91399867,13.3271381 1.42662303,13 0.518794119,13 C0.232039631,13 0,13.2236389 0,13.5000117 C0,13.7763846 0.232039631,14.0000234 0.518794119,14.0000234 C1.10091157,14.0000234 1.37093547,14.1811939 1.71240481,14.4101765 C2.10353093,14.6728619 2.59090656,15 3.49873548,15 C4.40709938,15 4.89496137,14.6728619 5.28657384,14.4101765 C5.62852954,14.1811939 5.89855344,14.0000234 6.48120588,14.0000234 C6.76796037,14.0000234 7,13.7763846 7,13.5000117 C7,13.223592 6.76796037,13 6.48120588,13 Z" id="Shape"></path>
            <path d="M10.3107086,14.4106452 C10.6531964,14.181147 10.9241763,14.0000234 11.5087095,14.0000234 C12.0917328,14.0000234 12.3621768,14.1811939 12.7041775,14.4101765 C13.0959122,14.6728619 13.5840461,15 14.4932876,15 C15.4030649,15 15.891686,14.6728619 16.2839078,14.4101765 C16.6263956,14.1811939 16.8968396,14.0000234 17.4803987,14.0000234 C17.7675993,14.0000234 18,13.7763846 18,13.5000117 C18,13.2236389 17.7675993,13 17.4803987,13 C16.5706214,13 16.0824874,13.3266693 15.6902656,13.5893548 C15.3477778,13.818853 15.0773337,13.9999766 14.4932876,13.9999766 C13.9102644,13.9999766 13.6398204,13.8188061 13.2978197,13.5898235 C12.906085,13.3271381 12.417951,13 11.5087095,13 C10.5984451,13 10.1097753,13.3266693 9.71706642,13.5893548 C9.37457865,13.818853 9.10359878,13.9999766 8.51960135,13.9999766 C8.23240068,13.9999766 8,14.2236154 8,14.4999883 C8,14.7763611 8.23240068,15 8.51960135,15 C9.42932993,15 9.91795102,14.6733307 10.3107086,14.4106452 Z" id="Shape"></path>
        </g>
    </g>
</svg>