<svg viewBox="0 0 50 50" version="1.1" xmlns="http://www.w3.org/2000/svg" xmlns:xlink="http://www.w3.org/1999/xlink">
    <g id="partly-cloudy-night" stroke="none" stroke-width="1" fill="none" fill-rule="evenodd">
        <path d="M16.7657612,12 C14.470574,13.7407129 13,16.4213859 13,19.4283562 C13,24.6750613 17.4771525,28.9283562 23,28.9283562 C23.4178955,28.9283562 23.829804,28.9040042 24.2342388,28.8567125 C22.5246741,30.1532783 20.3576155,30.9283562 18,30.9283562 C12.4771525,30.9283562 8,26.6750613 8,21.4283562 C8,17.050155 11.1175973,13.3636999 15.3588806,12.2632067 C15.8156386,12.1446909 16.2854289,12.0561667 16.7657612,12 Z" id="Combined-Shape" fill="#FFFFFF"></path>
        <path d="M41.7279934,29.1793407 C42.5482469,30.2164976 43,31.5250144 43,32.863762 C43,36.0877739 40.4469921,38.7107534 37.3089853,38.7107534 L36.2788572,38.7107534 C35.3998248,39.5120105 34.2443996,40 32.9796444,40 L17.0915891,40 C13.7326911,40 11,37.1924125 11,33.7414554 C11,32.3085772 11.4834783,30.9080787 12.3611859,29.797924 C13.1377214,28.8160708 14.1923232,28.0955483 15.3635761,27.7390122 C15.5191343,23.9960637 18.5316348,21.0002149 22.2123171,21.0002149 C23.775847,21.0002149 25.3052811,21.5553997 26.5189273,22.563472 C27.5466149,23.4170955 28.3149926,24.5644297 28.7253983,25.8428591 C29.2585212,25.6313875 29.8285292,25.5213534 30.4032087,25.5213534 C32.9502202,25.5213534 35.0265829,27.6317004 35.0623522,30.2399944 C36.8083545,31.0684018 37.9573649,32.8886916 37.9573649,34.8857092 C37.9573649,35.8977932 37.6685609,36.8413208 37.1728806,37.6362022 L37.3089155,37.6362022 C39.8702208,37.6362022 41.9540442,35.4952663 41.9540442,32.863762 C41.9540442,31.771015 41.5854739,30.7031976 40.9162463,29.8569527 C40.2562922,29.0225279 39.3336812,28.4356796 38.3184745,28.2047227 C38.0749922,28.1493475 37.9034669,27.9250529 37.9086963,27.6689515 C37.9093936,27.6375746 37.9100211,27.6062693 37.9100211,27.5748925 C37.9100211,24.5420074 35.5083878,22.0746229 32.5564789,22.0746229 C31.6470461,22.0746229 30.7491181,22.3129583 29.9596833,22.7639117 C29.7072064,22.9081164 29.3889084,22.8147738 29.2484807,22.5553771 C29.1081926,22.2960521 29.1990452,21.968887 29.4514524,21.8246823 C30.3958875,21.2851859 31.4695941,21 32.5564789,21 C35.9837081,21 38.7903086,23.782443 38.9488649,27.263989 C40.0328212,27.5996788 41.0082843,28.2692675 41.7279934,29.1793407 Z" id="Shape" fill="#908D8D" fill-rule="nonzero" opacity="0.728445871"></path>
    </g>
</svg>