<svg viewBox="0 0 50 50" version="1.1" xmlns="http://www.w3.org/2000/svg" xmlns:xlink="http://www.w3.org/1999/xlink">
    <g id="rain" stroke="none" stroke-width="1" fill="none" fill-rule="evenodd">
        <g id="Cloud-595b40b85ba036ed117de24e" transform="translate(2.000000, 6.000000)" fill="#FFFFFF" fill-rule="nonzero">
            <path d="M26.68,0 C21.8820914,0 17.8224774,2.87496335 15.87,6.94041708 C14.8310633,6.22467013 13.6273832,5.7020854 12.27625,5.7020854 C8.84915322,5.7020854 6.11442046,8.42171519 5.9225,11.8073486 C2.49471883,13.0469455 0,16.2499942 0,20.101291 C0,25.0116541 3.98082537,29 8.88375,29 L37.80625,29 C42.3190395,29 46,25.312034 46,20.7924528 C46,16.5993544 42.7873655,13.2665074 38.72625,12.7864945 C38.7406848,12.5643339 38.78375,12.3545663 38.78375,12.1241311 C38.78375,5.44254306 33.3512935,0 26.68,0 Z M26.68,1.84309831 C32.3569465,1.84309831 36.94375,6.43852943 36.94375,12.1241311 C36.94375,12.5435263 36.9106576,12.9600158 36.8575,13.3912612 L36.71375,14.428004 L37.74875,14.428004 L37.80625,14.428004 C41.3249197,14.428004 44.16,17.268753 44.16,20.7924528 C44.16,24.3161527 41.3250605,27.1569017 37.80625,27.1569017 L8.88375,27.1569017 C4.97491463,27.1569017 1.84,24.0156825 1.84,20.101291 C1.84,16.8423531 4.03343226,14.1015553 7.015,13.2760675 L7.705,13.1032771 L7.67625,12.3545184 C7.67165,12.2254877 7.67625,12.1589831 7.67625,12.1529295 C7.67625,9.59331381 9.71986716,7.54518371 12.27625,7.54518371 C13.5540527,7.54518371 14.7191821,8.06119779 15.55375,8.89870904 L16.56,9.93545184 L17.04875,8.58192651 C18.4955429,4.66545595 22.2574478,1.84309831 26.68,1.84309831 Z" id="Shape"></path>
        </g>
        <path d="M36.5,29.5 L32.5,41.5" id="Line-4" stroke="#FFFFFF" stroke-linecap="round" transform="translate(34.500000, 35.500000) rotate(3.000000) translate(-34.500000, -35.500000) "></path>
        <path d="M30,26 L26,38" id="Line-4-Copy" stroke="#FFFFFF" stroke-linecap="round" transform="translate(28.000000, 32.000000) rotate(3.000000) translate(-28.000000, -32.000000) "></path>
        <path d="M29.5,37.5 L27,44" id="Line-4-Copy-3" stroke="#FFFFFF" stroke-linecap="round"></path>
        <path d="M20.75,40.75 L18.25,47.25" id="Line-4-Copy-4" stroke="#FFFFFF" stroke-linecap="round"></path>
        <path d="M24.2726688,42.0937436 L23.0908896,44.9062564" id="Line-4-Copy-5" stroke="#FFFFFF" stroke-linecap="round" transform="translate(23.590890, 43.406256) rotate(-1.791476) translate(-23.590890, -43.406256) "></path>
        <path d="M20,30 L16,42" id="Line-4-Copy-2" stroke="#FFFFFF" stroke-linecap="round" transform="translate(18.000000, 36.000000) rotate(3.000000) translate(-18.000000, -36.000000) "></path>
    </g>
</svg>