<svg viewBox="0 0 50 50" version="1.1" xmlns="http://www.w3.org/2000/svg" xmlns:xlink="http://www.w3.org/1999/xlink">
    <g id="snow" stroke="none" stroke-width="1" fill="none" fill-rule="evenodd">
        <g id="62244-copy-3" transform="translate(36.000000, 35.000000)" fill="#FFFFFF" fill-rule="nonzero">
            <path d="M6.77866098,5.02628218 L5.97634907,5.24433093 L5.43562699,4.92765212 L6.32243441,4.68662178 C6.41619332,4.66110847 6.471844,4.56336986 6.44670803,4.46826994 C6.42158964,4.37317002 6.32517652,4.31665207 6.23141761,4.34220104 L5.00504614,4.67549648 L4.54057567,4.40349716 C4.52489645,4.39433305 4.50844382,4.38789678 4.49169237,4.38402788 L4.98511314,4.16376834 C5.04884951,4.13527759 5.09003382,4.07134277 5.09008656,4.00070425 C5.09013929,3.93008355 5.04906044,3.86604176 4.98534165,3.83749752 L4.49070802,3.61586514 C4.50779345,3.61201408 4.52463279,3.60582741 4.54057567,3.59646718 L5.00508129,3.32445003 L6.23148792,3.65772765 C6.24672769,3.66186398 6.26202021,3.66386083 6.27710179,3.66386083 C6.35470688,3.663843 6.42573796,3.61131874 6.44676077,3.53165874 C6.47189673,3.43654099 6.41626363,3.33878455 6.32248714,3.3133069 L5.43566214,3.07229439 L5.97636665,2.75565124 L6.77869614,2.97368216 C6.79391834,2.97781849 6.80921085,2.97981534 6.82429243,2.97981534 C6.90189752,2.97979751 6.9729286,2.92727325 6.99396899,2.84761325 C7.01908737,2.7524955 6.96345427,2.65473906 6.86967779,2.62926141 L6.40696508,2.50351343 L6.85094007,2.24351303 C6.93501372,2.19426931 6.9638234,2.08524494 6.91527408,1.9999688 C6.86672475,1.91469266 6.75923773,1.88545309 6.67516408,1.93471464 L6.23115394,2.19473287 L6.35512874,1.72538427 C6.38024713,1.63026652 6.32463161,1.53251008 6.23083755,1.50703243 C6.13706106,1.48153695 6.04070066,1.53798358 6.01558227,1.63310133 L5.80062582,2.44687068 L5.25990374,2.76353166 L5.49753529,1.86404045 C5.52268883,1.76894053 5.46703816,1.67118409 5.37326167,1.64568861 C5.2794676,1.62015747 5.18310721,1.67663977 5.15797124,1.77175752 L4.82935804,3.0156873 L4.36487,3.28768662 C4.34936656,3.29677941 4.33579665,3.30790471 4.32419543,3.32052765 L4.38281673,2.77718868 C4.39039267,2.70696022 4.35638002,2.63881776 4.29607128,2.60344501 C4.23574496,2.56809009 4.16054799,2.57217293 4.10435241,2.61385715 L3.66781275,2.93754276 C3.67301572,2.92069435 3.67584571,2.90275837 3.67584571,2.88416272 L3.67584571,2.34014624 L4.57362156,1.42949408 C4.6422445,1.35987181 4.6422445,1.24697854 4.57362156,1.17733844 C4.50498103,1.107734 4.39367968,1.107734 4.32502158,1.17733844 L3.67581056,1.83581714 L3.67581056,1.20260214 L4.26313086,0.606845893 C4.3317538,0.537223623 4.3317538,0.424330354 4.26313086,0.354690254 C4.19449033,0.285085813 4.08318898,0.285085813 4.01453088,0.354690254 L3.67579298,0.698290867 L3.67579298,0.178290065 C3.67579298,0.0798382909 3.59708049,0 3.50001699,0 C3.40293592,0 3.32424101,0.0798382909 3.32424101,0.178290065 L3.32424101,0.698308696 L2.98550311,0.354725912 C2.91686259,0.285121471 2.80556123,0.285121471 2.73690313,0.354725912 C2.66826261,0.424348183 2.66826261,0.537241452 2.73690313,0.606881551 L3.32424101,1.20260214 L3.32424101,1.83588845 L2.67502999,1.17742759 C2.60638946,1.10782315 2.49508811,1.10782315 2.42644759,1.17742759 C2.35780707,1.24704986 2.35780707,1.35994313 2.42644759,1.42958322 L3.32422343,2.34016407 L3.32422343,2.88418055 C3.32422343,2.90215218 3.32689523,2.91946415 3.3317818,2.93583118 L2.89768543,2.61305484 C2.841525,2.57128148 2.76632803,2.56712732 2.70598414,2.60237527 C2.64564024,2.63765887 2.61152212,2.70576568 2.61901018,2.77599413 L2.67719203,3.32193614 C2.66530957,3.30872485 2.65128265,3.29708251 2.63519915,3.28766879 L2.17071111,3.01565164 L1.84208032,1.77172186 C1.81696194,1.67660411 1.72058396,1.62013965 1.6267899,1.64565295 C1.53303099,1.67114843 1.47738031,1.76890488 1.5024987,1.8640048 L1.74014783,2.763496 L1.19942574,2.44685285 L0.984451715,1.63306568 C0.959333327,1.53796575 0.862920199,1.48150129 0.769161288,1.5070146 C0.6753848,1.53251008 0.619751701,1.63026652 0.644870089,1.72538427 L0.768862469,2.19469721 L0.324887486,1.93469681 C0.24083141,1.88548875 0.133326817,1.91467483 0.0847774898,1.99995097 C0.0362281627,2.08522711 0.0650378467,2.19425148 0.1491115,2.2434952 L0.593121639,2.50351343 L0.130391358,2.62927924 C0.0366324475,2.65477472 -0.0190182294,2.75253116 0.00610015885,2.84763108 C0.0271405443,2.92729108 0.0981540423,2.97983317 0.175776717,2.97983317 C0.190823142,2.97983317 0.206150808,2.97785415 0.221390586,2.97369999 L1.02368491,2.75566907 L1.564407,3.07231222 L0.677582,3.31336039 C0.583823089,3.33885587 0.528172413,3.43661231 0.553290801,3.53171223 C0.574331186,3.61137223 0.645344684,3.66391431 0.722967359,3.66391431 C0.738013784,3.66391431 0.75334145,3.66193529 0.768581228,3.65778114 L1.9949527,3.32448569 L2.45942316,3.59648501 C2.47485629,3.60552432 2.49111557,3.6116575 2.50760336,3.61554422 L2.01500874,3.83542936 C1.95127237,3.86390228 1.91008805,3.92785493 1.91003532,3.99849345 C1.90998259,4.06911414 1.95106144,4.13315593 2.01478023,4.16168235 L2.51009938,4.38363565 C2.49273271,4.38745105 2.47562971,4.39395864 2.45940558,4.4034615 L1.99489997,4.67546082 L0.76849334,4.34220104 C0.674716851,4.31665207 0.578338879,4.37313436 0.55322049,4.46826994 C0.528084525,4.56338769 0.583735201,4.66114413 0.67751169,4.68662178 L1.56431911,4.92763429 L1.0236146,5.24429528 L0.221302698,5.02626436 C0.127508632,5.00075105 0.0311482367,5.05719768 0.00602984846,5.15233326 C-0.0190885398,5.24743318 0.0365621371,5.34520745 0.130321048,5.37066727 L0.593033751,5.49643308 L0.149058768,5.75643349 C0.0649851139,5.8056772 0.0361754299,5.91470158 0.084724757,5.99997771 C0.11727847,6.05715534 0.176356778,6.0891584 0.237104959,6.0891584 C0.266916566,6.0891584 0.297150035,6.08142062 0.324834753,6.06523188 L0.768844892,5.80521365 L0.644852512,6.27454441 C0.619716546,6.36964433 0.675367223,6.46740078 0.769143711,6.49291408 C0.784383489,6.49703258 0.799693577,6.49904726 0.814757579,6.49904726 C0.892362676,6.49904726 0.963393752,6.44650518 0.984434137,6.36682735 L1.19940817,5.55305801 L1.74013025,5.23639703 L1.50251628,6.1358704 C1.47738031,6.23097032 1.53303099,6.32874459 1.62680748,6.35424007 C1.64204725,6.35835857 1.65735734,6.36037325 1.67242134,6.36037325 C1.75002644,6.36037325 1.82105752,6.30783117 1.8420979,6.22817117 L2.17071111,4.98422356 L2.63518157,4.71222424 C2.65070259,4.70313144 2.66429007,4.69198831 2.67590887,4.67934755 L2.61735788,5.22195553 C2.60978194,5.29218399 2.64379459,5.36034428 2.70410333,5.39571703 C2.7643945,5.43103629 2.83959146,5.42695345 2.8958222,5.38530489 L3.33259037,5.06145881 C3.32719405,5.07859249 3.32422343,5.0967959 3.32422343,5.11574814 L3.32422343,5.65980027 L2.42646516,6.57041678 C2.35782464,6.64005687 2.35782464,6.75295014 2.42646516,6.82260807 C2.46079421,6.85739246 2.50577529,6.8748114 2.55075636,6.8748114 C2.59573744,6.8748114 2.64073609,6.85739246 2.67504756,6.82260807 L3.32424101,6.16414721 L3.32424101,6.79743351 L2.73693829,7.39317194 C2.66829777,7.46281204 2.66829777,7.57566965 2.73693829,7.64532757 C2.77126734,7.68014762 2.81624841,7.69756656 2.86122949,7.69756656 C2.90621056,7.69756656 2.95120921,7.68014762 2.98552069,7.64532757 L3.32424101,7.30170913 L3.32424101,7.82170994 C3.32424101,7.92017954 3.40293592,8 3.50001699,8 C3.59708049,8 3.67579298,7.92017954 3.67579298,7.82170994 L3.67579298,7.30170913 L4.01453088,7.64529192 C4.0831714,7.71489636 4.19447276,7.71489636 4.26314843,7.64529192 C4.33177138,7.57565182 4.33177138,7.46275855 4.26314843,7.39313628 L3.67581056,6.79739786 L3.67581056,6.16411155 L4.32498643,6.82257241 C4.39362695,6.89217685 4.5049283,6.89217685 4.57360398,6.82257241 C4.6422445,6.75296797 4.6422445,6.6400747 4.57360398,6.57041678 L3.67582814,5.65983593 L3.67582814,5.11581945 C3.67582814,5.09747341 3.67308603,5.0797692 3.6680061,5.06309908 L4.10250676,5.38617851 C4.13330271,5.40905312 4.16981139,5.42067764 4.2064431,5.42067764 C4.23664142,5.42067764 4.2669452,5.41279722 4.29420805,5.39684025 C4.35455195,5.36155665 4.38867007,5.29344985 4.38118201,5.22323922 L4.3231232,4.67834912 C4.33495292,4.69143561 4.34889196,4.70297098 4.36487,4.71229555 L4.82937562,4.98433053 L5.15802398,6.22827814 C5.17904678,6.30793814 5.25006028,6.3604624 5.32768296,6.3604624 C5.34272938,6.36044457 5.35807462,6.3585012 5.3733144,6.35431139 C5.46707331,6.32881591 5.52272399,6.2310773 5.49758802,6.13594172 L5.25993889,5.23648617 L5.80066098,5.55314715 L6.01563501,6.36689867 C6.03665781,6.44659433 6.10767131,6.49911858 6.18529399,6.49911858 C6.20034041,6.49908292 6.21568566,6.49713956 6.23092543,6.4929854 C6.32468434,6.46747209 6.38033502,6.36971565 6.35519906,6.27461573 L6.23120668,5.80528496 L6.67518166,6.06530319 C6.70286638,6.08149193 6.73308227,6.08922972 6.76291145,6.08922972 C6.82365963,6.08922972 6.88273794,6.05722665 6.91529165,6.00004903 C6.96384098,5.91477289 6.9350313,5.80574852 6.85095764,5.7565048 L6.40694751,5.49648657 L6.86967779,5.37070293 C6.9634367,5.34520745 7.01908737,5.24746884 6.99396899,5.15236892 C6.96879786,5.05723334 6.87240231,5.00075105 6.77866098,5.02628218 Z M4.05320047,4.22771189 C3.98154801,4.26411926 3.93856372,4.34993365 3.94697017,4.43977028 L3.99940275,5 L3.60568244,4.66686018 C3.57406842,4.64011445 3.53677824,4.62672085 3.49948807,4.62672085 C3.46226974,4.62672085 3.42505142,4.64007298 3.39349128,4.66669431 L2.99939377,4.99919141 L3.05250891,4.43910682 C3.06104111,4.34924946 3.01814663,4.2633936 2.94654805,4.22688257 L2.5,3.99921214 L2.94681749,3.77222591 C3.01846995,3.73583928 3.06145424,3.65002488 3.05304779,3.56018826 L3.00061522,3 L3.39433552,3.33313982 C3.45747375,3.38656908 3.54333456,3.38661055 3.60650872,3.33330569 L4.00058827,3.00078786 L3.94749109,3.56089318 C3.93894093,3.65072981 3.98185337,3.73658567 4.05343398,3.7730967 L4.5,4.00076713 L4.05320047,4.22771189 Z" id="Shape"></path>
        </g>
        <g id="62244-copy-4" transform="translate(25.000000, 41.000000)" fill="#FFFFFF" fill-rule="nonzero">
            <path d="M6.77866098,5.02628218 L5.97634907,5.24433093 L5.43562699,4.92765212 L6.32243441,4.68662178 C6.41619332,4.66110847 6.471844,4.56336986 6.44670803,4.46826994 C6.42158964,4.37317002 6.32517652,4.31665207 6.23141761,4.34220104 L5.00504614,4.67549648 L4.54057567,4.40349716 C4.52489645,4.39433305 4.50844382,4.38789678 4.49169237,4.38402788 L4.98511314,4.16376834 C5.04884951,4.13527759 5.09003382,4.07134277 5.09008656,4.00070425 C5.09013929,3.93008355 5.04906044,3.86604176 4.98534165,3.83749752 L4.49070802,3.61586514 C4.50779345,3.61201408 4.52463279,3.60582741 4.54057567,3.59646718 L5.00508129,3.32445003 L6.23148792,3.65772765 C6.24672769,3.66186398 6.26202021,3.66386083 6.27710179,3.66386083 C6.35470688,3.663843 6.42573796,3.61131874 6.44676077,3.53165874 C6.47189673,3.43654099 6.41626363,3.33878455 6.32248714,3.3133069 L5.43566214,3.07229439 L5.97636665,2.75565124 L6.77869614,2.97368216 C6.79391834,2.97781849 6.80921085,2.97981534 6.82429243,2.97981534 C6.90189752,2.97979751 6.9729286,2.92727325 6.99396899,2.84761325 C7.01908737,2.7524955 6.96345427,2.65473906 6.86967779,2.62926141 L6.40696508,2.50351343 L6.85094007,2.24351303 C6.93501372,2.19426931 6.9638234,2.08524494 6.91527408,1.9999688 C6.86672475,1.91469266 6.75923773,1.88545309 6.67516408,1.93471464 L6.23115394,2.19473287 L6.35512874,1.72538427 C6.38024713,1.63026652 6.32463161,1.53251008 6.23083755,1.50703243 C6.13706106,1.48153695 6.04070066,1.53798358 6.01558227,1.63310133 L5.80062582,2.44687068 L5.25990374,2.76353166 L5.49753529,1.86404045 C5.52268883,1.76894053 5.46703816,1.67118409 5.37326167,1.64568861 C5.2794676,1.62015747 5.18310721,1.67663977 5.15797124,1.77175752 L4.82935804,3.0156873 L4.36487,3.28768662 C4.34936656,3.29677941 4.33579665,3.30790471 4.32419543,3.32052765 L4.38281673,2.77718868 C4.39039267,2.70696022 4.35638002,2.63881776 4.29607128,2.60344501 C4.23574496,2.56809009 4.16054799,2.57217293 4.10435241,2.61385715 L3.66781275,2.93754276 C3.67301572,2.92069435 3.67584571,2.90275837 3.67584571,2.88416272 L3.67584571,2.34014624 L4.57362156,1.42949408 C4.6422445,1.35987181 4.6422445,1.24697854 4.57362156,1.17733844 C4.50498103,1.107734 4.39367968,1.107734 4.32502158,1.17733844 L3.67581056,1.83581714 L3.67581056,1.20260214 L4.26313086,0.606845893 C4.3317538,0.537223623 4.3317538,0.424330354 4.26313086,0.354690254 C4.19449033,0.285085813 4.08318898,0.285085813 4.01453088,0.354690254 L3.67579298,0.698290867 L3.67579298,0.178290065 C3.67579298,0.0798382909 3.59708049,0 3.50001699,0 C3.40293592,0 3.32424101,0.0798382909 3.32424101,0.178290065 L3.32424101,0.698308696 L2.98550311,0.354725912 C2.91686259,0.285121471 2.80556123,0.285121471 2.73690313,0.354725912 C2.66826261,0.424348183 2.66826261,0.537241452 2.73690313,0.606881551 L3.32424101,1.20260214 L3.32424101,1.83588845 L2.67502999,1.17742759 C2.60638946,1.10782315 2.49508811,1.10782315 2.42644759,1.17742759 C2.35780707,1.24704986 2.35780707,1.35994313 2.42644759,1.42958322 L3.32422343,2.34016407 L3.32422343,2.88418055 C3.32422343,2.90215218 3.32689523,2.91946415 3.3317818,2.93583118 L2.89768543,2.61305484 C2.841525,2.57128148 2.76632803,2.56712732 2.70598414,2.60237527 C2.64564024,2.63765887 2.61152212,2.70576568 2.61901018,2.77599413 L2.67719203,3.32193614 C2.66530957,3.30872485 2.65128265,3.29708251 2.63519915,3.28766879 L2.17071111,3.01565164 L1.84208032,1.77172186 C1.81696194,1.67660411 1.72058396,1.62013965 1.6267899,1.64565295 C1.53303099,1.67114843 1.47738031,1.76890488 1.5024987,1.8640048 L1.74014783,2.763496 L1.19942574,2.44685285 L0.984451715,1.63306568 C0.959333327,1.53796575 0.862920199,1.48150129 0.769161288,1.5070146 C0.6753848,1.53251008 0.619751701,1.63026652 0.644870089,1.72538427 L0.768862469,2.19469721 L0.324887486,1.93469681 C0.24083141,1.88548875 0.133326817,1.91467483 0.0847774898,1.99995097 C0.0362281627,2.08522711 0.0650378467,2.19425148 0.1491115,2.2434952 L0.593121639,2.50351343 L0.130391358,2.62927924 C0.0366324475,2.65477472 -0.0190182294,2.75253116 0.00610015885,2.84763108 C0.0271405443,2.92729108 0.0981540423,2.97983317 0.175776717,2.97983317 C0.190823142,2.97983317 0.206150808,2.97785415 0.221390586,2.97369999 L1.02368491,2.75566907 L1.564407,3.07231222 L0.677582,3.31336039 C0.583823089,3.33885587 0.528172413,3.43661231 0.553290801,3.53171223 C0.574331186,3.61137223 0.645344684,3.66391431 0.722967359,3.66391431 C0.738013784,3.66391431 0.75334145,3.66193529 0.768581228,3.65778114 L1.9949527,3.32448569 L2.45942316,3.59648501 C2.47485629,3.60552432 2.49111557,3.6116575 2.50760336,3.61554422 L2.01500874,3.83542936 C1.95127237,3.86390228 1.91008805,3.92785493 1.91003532,3.99849345 C1.90998259,4.06911414 1.95106144,4.13315593 2.01478023,4.16168235 L2.51009938,4.38363565 C2.49273271,4.38745105 2.47562971,4.39395864 2.45940558,4.4034615 L1.99489997,4.67546082 L0.76849334,4.34220104 C0.674716851,4.31665207 0.578338879,4.37313436 0.55322049,4.46826994 C0.528084525,4.56338769 0.583735201,4.66114413 0.67751169,4.68662178 L1.56431911,4.92763429 L1.0236146,5.24429528 L0.221302698,5.02626436 C0.127508632,5.00075105 0.0311482367,5.05719768 0.00602984846,5.15233326 C-0.0190885398,5.24743318 0.0365621371,5.34520745 0.130321048,5.37066727 L0.593033751,5.49643308 L0.149058768,5.75643349 C0.0649851139,5.8056772 0.0361754299,5.91470158 0.084724757,5.99997771 C0.11727847,6.05715534 0.176356778,6.0891584 0.237104959,6.0891584 C0.266916566,6.0891584 0.297150035,6.08142062 0.324834753,6.06523188 L0.768844892,5.80521365 L0.644852512,6.27454441 C0.619716546,6.36964433 0.675367223,6.46740078 0.769143711,6.49291408 C0.784383489,6.49703258 0.799693577,6.49904726 0.814757579,6.49904726 C0.892362676,6.49904726 0.963393752,6.44650518 0.984434137,6.36682735 L1.19940817,5.55305801 L1.74013025,5.23639703 L1.50251628,6.1358704 C1.47738031,6.23097032 1.53303099,6.32874459 1.62680748,6.35424007 C1.64204725,6.35835857 1.65735734,6.36037325 1.67242134,6.36037325 C1.75002644,6.36037325 1.82105752,6.30783117 1.8420979,6.22817117 L2.17071111,4.98422356 L2.63518157,4.71222424 C2.65070259,4.70313144 2.66429007,4.69198831 2.67590887,4.67934755 L2.61735788,5.22195553 C2.60978194,5.29218399 2.64379459,5.36034428 2.70410333,5.39571703 C2.7643945,5.43103629 2.83959146,5.42695345 2.8958222,5.38530489 L3.33259037,5.06145881 C3.32719405,5.07859249 3.32422343,5.0967959 3.32422343,5.11574814 L3.32422343,5.65980027 L2.42646516,6.57041678 C2.35782464,6.64005687 2.35782464,6.75295014 2.42646516,6.82260807 C2.46079421,6.85739246 2.50577529,6.8748114 2.55075636,6.8748114 C2.59573744,6.8748114 2.64073609,6.85739246 2.67504756,6.82260807 L3.32424101,6.16414721 L3.32424101,6.79743351 L2.73693829,7.39317194 C2.66829777,7.46281204 2.66829777,7.57566965 2.73693829,7.64532757 C2.77126734,7.68014762 2.81624841,7.69756656 2.86122949,7.69756656 C2.90621056,7.69756656 2.95120921,7.68014762 2.98552069,7.64532757 L3.32424101,7.30170913 L3.32424101,7.82170994 C3.32424101,7.92017954 3.40293592,8 3.50001699,8 C3.59708049,8 3.67579298,7.92017954 3.67579298,7.82170994 L3.67579298,7.30170913 L4.01453088,7.64529192 C4.0831714,7.71489636 4.19447276,7.71489636 4.26314843,7.64529192 C4.33177138,7.57565182 4.33177138,7.46275855 4.26314843,7.39313628 L3.67581056,6.79739786 L3.67581056,6.16411155 L4.32498643,6.82257241 C4.39362695,6.89217685 4.5049283,6.89217685 4.57360398,6.82257241 C4.6422445,6.75296797 4.6422445,6.6400747 4.57360398,6.57041678 L3.67582814,5.65983593 L3.67582814,5.11581945 C3.67582814,5.09747341 3.67308603,5.0797692 3.6680061,5.06309908 L4.10250676,5.38617851 C4.13330271,5.40905312 4.16981139,5.42067764 4.2064431,5.42067764 C4.23664142,5.42067764 4.2669452,5.41279722 4.29420805,5.39684025 C4.35455195,5.36155665 4.38867007,5.29344985 4.38118201,5.22323922 L4.3231232,4.67834912 C4.33495292,4.69143561 4.34889196,4.70297098 4.36487,4.71229555 L4.82937562,4.98433053 L5.15802398,6.22827814 C5.17904678,6.30793814 5.25006028,6.3604624 5.32768296,6.3604624 C5.34272938,6.36044457 5.35807462,6.3585012 5.3733144,6.35431139 C5.46707331,6.32881591 5.52272399,6.2310773 5.49758802,6.13594172 L5.25993889,5.23648617 L5.80066098,5.55314715 L6.01563501,6.36689867 C6.03665781,6.44659433 6.10767131,6.49911858 6.18529399,6.49911858 C6.20034041,6.49908292 6.21568566,6.49713956 6.23092543,6.4929854 C6.32468434,6.46747209 6.38033502,6.36971565 6.35519906,6.27461573 L6.23120668,5.80528496 L6.67518166,6.06530319 C6.70286638,6.08149193 6.73308227,6.08922972 6.76291145,6.08922972 C6.82365963,6.08922972 6.88273794,6.05722665 6.91529165,6.00004903 C6.96384098,5.91477289 6.9350313,5.80574852 6.85095764,5.7565048 L6.40694751,5.49648657 L6.86967779,5.37070293 C6.9634367,5.34520745 7.01908737,5.24746884 6.99396899,5.15236892 C6.96879786,5.05723334 6.87240231,5.00075105 6.77866098,5.02628218 Z M4.05320047,4.22771189 C3.98154801,4.26411926 3.93856372,4.34993365 3.94697017,4.43977028 L3.99940275,5 L3.60568244,4.66686018 C3.57406842,4.64011445 3.53677824,4.62672085 3.49948807,4.62672085 C3.46226974,4.62672085 3.42505142,4.64007298 3.39349128,4.66669431 L2.99939377,4.99919141 L3.05250891,4.43910682 C3.06104111,4.34924946 3.01814663,4.2633936 2.94654805,4.22688257 L2.5,3.99921214 L2.94681749,3.77222591 C3.01846995,3.73583928 3.06145424,3.65002488 3.05304779,3.56018826 L3.00061522,3 L3.39433552,3.33313982 C3.45747375,3.38656908 3.54333456,3.38661055 3.60650872,3.33330569 L4.00058827,3.00078786 L3.94749109,3.56089318 C3.93894093,3.65072981 3.98185337,3.73658567 4.05343398,3.7730967 L4.5,4.00076713 L4.05320047,4.22771189 Z" id="Shape"></path>
        </g>
        <g id="62244-copy-5" transform="translate(15.000000, 33.000000)" fill="#FFFFFF" fill-rule="nonzero">
            <path d="M6.77866098,5.02628218 L5.97634907,5.24433093 L5.43562699,4.92765212 L6.32243441,4.68662178 C6.41619332,4.66110847 6.471844,4.56336986 6.44670803,4.46826994 C6.42158964,4.37317002 6.32517652,4.31665207 6.23141761,4.34220104 L5.00504614,4.67549648 L4.54057567,4.40349716 C4.52489645,4.39433305 4.50844382,4.38789678 4.49169237,4.38402788 L4.98511314,4.16376834 C5.04884951,4.13527759 5.09003382,4.07134277 5.09008656,4.00070425 C5.09013929,3.93008355 5.04906044,3.86604176 4.98534165,3.83749752 L4.49070802,3.61586514 C4.50779345,3.61201408 4.52463279,3.60582741 4.54057567,3.59646718 L5.00508129,3.32445003 L6.23148792,3.65772765 C6.24672769,3.66186398 6.26202021,3.66386083 6.27710179,3.66386083 C6.35470688,3.663843 6.42573796,3.61131874 6.44676077,3.53165874 C6.47189673,3.43654099 6.41626363,3.33878455 6.32248714,3.3133069 L5.43566214,3.07229439 L5.97636665,2.75565124 L6.77869614,2.97368216 C6.79391834,2.97781849 6.80921085,2.97981534 6.82429243,2.97981534 C6.90189752,2.97979751 6.9729286,2.92727325 6.99396899,2.84761325 C7.01908737,2.7524955 6.96345427,2.65473906 6.86967779,2.62926141 L6.40696508,2.50351343 L6.85094007,2.24351303 C6.93501372,2.19426931 6.9638234,2.08524494 6.91527408,1.9999688 C6.86672475,1.91469266 6.75923773,1.88545309 6.67516408,1.93471464 L6.23115394,2.19473287 L6.35512874,1.72538427 C6.38024713,1.63026652 6.32463161,1.53251008 6.23083755,1.50703243 C6.13706106,1.48153695 6.04070066,1.53798358 6.01558227,1.63310133 L5.80062582,2.44687068 L5.25990374,2.76353166 L5.49753529,1.86404045 C5.52268883,1.76894053 5.46703816,1.67118409 5.37326167,1.64568861 C5.2794676,1.62015747 5.18310721,1.67663977 5.15797124,1.77175752 L4.82935804,3.0156873 L4.36487,3.28768662 C4.34936656,3.29677941 4.33579665,3.30790471 4.32419543,3.32052765 L4.38281673,2.77718868 C4.39039267,2.70696022 4.35638002,2.63881776 4.29607128,2.60344501 C4.23574496,2.56809009 4.16054799,2.57217293 4.10435241,2.61385715 L3.66781275,2.93754276 C3.67301572,2.92069435 3.67584571,2.90275837 3.67584571,2.88416272 L3.67584571,2.34014624 L4.57362156,1.42949408 C4.6422445,1.35987181 4.6422445,1.24697854 4.57362156,1.17733844 C4.50498103,1.107734 4.39367968,1.107734 4.32502158,1.17733844 L3.67581056,1.83581714 L3.67581056,1.20260214 L4.26313086,0.606845893 C4.3317538,0.537223623 4.3317538,0.424330354 4.26313086,0.354690254 C4.19449033,0.285085813 4.08318898,0.285085813 4.01453088,0.354690254 L3.67579298,0.698290867 L3.67579298,0.178290065 C3.67579298,0.0798382909 3.59708049,0 3.50001699,0 C3.40293592,0 3.32424101,0.0798382909 3.32424101,0.178290065 L3.32424101,0.698308696 L2.98550311,0.354725912 C2.91686259,0.285121471 2.80556123,0.285121471 2.73690313,0.354725912 C2.66826261,0.424348183 2.66826261,0.537241452 2.73690313,0.606881551 L3.32424101,1.20260214 L3.32424101,1.83588845 L2.67502999,1.17742759 C2.60638946,1.10782315 2.49508811,1.10782315 2.42644759,1.17742759 C2.35780707,1.24704986 2.35780707,1.35994313 2.42644759,1.42958322 L3.32422343,2.34016407 L3.32422343,2.88418055 C3.32422343,2.90215218 3.32689523,2.91946415 3.3317818,2.93583118 L2.89768543,2.61305484 C2.841525,2.57128148 2.76632803,2.56712732 2.70598414,2.60237527 C2.64564024,2.63765887 2.61152212,2.70576568 2.61901018,2.77599413 L2.67719203,3.32193614 C2.66530957,3.30872485 2.65128265,3.29708251 2.63519915,3.28766879 L2.17071111,3.01565164 L1.84208032,1.77172186 C1.81696194,1.67660411 1.72058396,1.62013965 1.6267899,1.64565295 C1.53303099,1.67114843 1.47738031,1.76890488 1.5024987,1.8640048 L1.74014783,2.763496 L1.19942574,2.44685285 L0.984451715,1.63306568 C0.959333327,1.53796575 0.862920199,1.48150129 0.769161288,1.5070146 C0.6753848,1.53251008 0.619751701,1.63026652 0.644870089,1.72538427 L0.768862469,2.19469721 L0.324887486,1.93469681 C0.24083141,1.88548875 0.133326817,1.91467483 0.0847774898,1.99995097 C0.0362281627,2.08522711 0.0650378467,2.19425148 0.1491115,2.2434952 L0.593121639,2.50351343 L0.130391358,2.62927924 C0.0366324475,2.65477472 -0.0190182294,2.75253116 0.00610015885,2.84763108 C0.0271405443,2.92729108 0.0981540423,2.97983317 0.175776717,2.97983317 C0.190823142,2.97983317 0.206150808,2.97785415 0.221390586,2.97369999 L1.02368491,2.75566907 L1.564407,3.07231222 L0.677582,3.31336039 C0.583823089,3.33885587 0.528172413,3.43661231 0.553290801,3.53171223 C0.574331186,3.61137223 0.645344684,3.66391431 0.722967359,3.66391431 C0.738013784,3.66391431 0.75334145,3.66193529 0.768581228,3.65778114 L1.9949527,3.32448569 L2.45942316,3.59648501 C2.47485629,3.60552432 2.49111557,3.6116575 2.50760336,3.61554422 L2.01500874,3.83542936 C1.95127237,3.86390228 1.91008805,3.92785493 1.91003532,3.99849345 C1.90998259,4.06911414 1.95106144,4.13315593 2.01478023,4.16168235 L2.51009938,4.38363565 C2.49273271,4.38745105 2.47562971,4.39395864 2.45940558,4.4034615 L1.99489997,4.67546082 L0.76849334,4.34220104 C0.674716851,4.31665207 0.578338879,4.37313436 0.55322049,4.46826994 C0.528084525,4.56338769 0.583735201,4.66114413 0.67751169,4.68662178 L1.56431911,4.92763429 L1.0236146,5.24429528 L0.221302698,5.02626436 C0.127508632,5.00075105 0.0311482367,5.05719768 0.00602984846,5.15233326 C-0.0190885398,5.24743318 0.0365621371,5.34520745 0.130321048,5.37066727 L0.593033751,5.49643308 L0.149058768,5.75643349 C0.0649851139,5.8056772 0.0361754299,5.91470158 0.084724757,5.99997771 C0.11727847,6.05715534 0.176356778,6.0891584 0.237104959,6.0891584 C0.266916566,6.0891584 0.297150035,6.08142062 0.324834753,6.06523188 L0.768844892,5.80521365 L0.644852512,6.27454441 C0.619716546,6.36964433 0.675367223,6.46740078 0.769143711,6.49291408 C0.784383489,6.49703258 0.799693577,6.49904726 0.814757579,6.49904726 C0.892362676,6.49904726 0.963393752,6.44650518 0.984434137,6.36682735 L1.19940817,5.55305801 L1.74013025,5.23639703 L1.50251628,6.1358704 C1.47738031,6.23097032 1.53303099,6.32874459 1.62680748,6.35424007 C1.64204725,6.35835857 1.65735734,6.36037325 1.67242134,6.36037325 C1.75002644,6.36037325 1.82105752,6.30783117 1.8420979,6.22817117 L2.17071111,4.98422356 L2.63518157,4.71222424 C2.65070259,4.70313144 2.66429007,4.69198831 2.67590887,4.67934755 L2.61735788,5.22195553 C2.60978194,5.29218399 2.64379459,5.36034428 2.70410333,5.39571703 C2.7643945,5.43103629 2.83959146,5.42695345 2.8958222,5.38530489 L3.33259037,5.06145881 C3.32719405,5.07859249 3.32422343,5.0967959 3.32422343,5.11574814 L3.32422343,5.65980027 L2.42646516,6.57041678 C2.35782464,6.64005687 2.35782464,6.75295014 2.42646516,6.82260807 C2.46079421,6.85739246 2.50577529,6.8748114 2.55075636,6.8748114 C2.59573744,6.8748114 2.64073609,6.85739246 2.67504756,6.82260807 L3.32424101,6.16414721 L3.32424101,6.79743351 L2.73693829,7.39317194 C2.66829777,7.46281204 2.66829777,7.57566965 2.73693829,7.64532757 C2.77126734,7.68014762 2.81624841,7.69756656 2.86122949,7.69756656 C2.90621056,7.69756656 2.95120921,7.68014762 2.98552069,7.64532757 L3.32424101,7.30170913 L3.32424101,7.82170994 C3.32424101,7.92017954 3.40293592,8 3.50001699,8 C3.59708049,8 3.67579298,7.92017954 3.67579298,7.82170994 L3.67579298,7.30170913 L4.01453088,7.64529192 C4.0831714,7.71489636 4.19447276,7.71489636 4.26314843,7.64529192 C4.33177138,7.57565182 4.33177138,7.46275855 4.26314843,7.39313628 L3.67581056,6.79739786 L3.67581056,6.16411155 L4.32498643,6.82257241 C4.39362695,6.89217685 4.5049283,6.89217685 4.57360398,6.82257241 C4.6422445,6.75296797 4.6422445,6.6400747 4.57360398,6.57041678 L3.67582814,5.65983593 L3.67582814,5.11581945 C3.67582814,5.09747341 3.67308603,5.0797692 3.6680061,5.06309908 L4.10250676,5.38617851 C4.13330271,5.40905312 4.16981139,5.42067764 4.2064431,5.42067764 C4.23664142,5.42067764 4.2669452,5.41279722 4.29420805,5.39684025 C4.35455195,5.36155665 4.38867007,5.29344985 4.38118201,5.22323922 L4.3231232,4.67834912 C4.33495292,4.69143561 4.34889196,4.70297098 4.36487,4.71229555 L4.82937562,4.98433053 L5.15802398,6.22827814 C5.17904678,6.30793814 5.25006028,6.3604624 5.32768296,6.3604624 C5.34272938,6.36044457 5.35807462,6.3585012 5.3733144,6.35431139 C5.46707331,6.32881591 5.52272399,6.2310773 5.49758802,6.13594172 L5.25993889,5.23648617 L5.80066098,5.55314715 L6.01563501,6.36689867 C6.03665781,6.44659433 6.10767131,6.49911858 6.18529399,6.49911858 C6.20034041,6.49908292 6.21568566,6.49713956 6.23092543,6.4929854 C6.32468434,6.46747209 6.38033502,6.36971565 6.35519906,6.27461573 L6.23120668,5.80528496 L6.67518166,6.06530319 C6.70286638,6.08149193 6.73308227,6.08922972 6.76291145,6.08922972 C6.82365963,6.08922972 6.88273794,6.05722665 6.91529165,6.00004903 C6.96384098,5.91477289 6.9350313,5.80574852 6.85095764,5.7565048 L6.40694751,5.49648657 L6.86967779,5.37070293 C6.9634367,5.34520745 7.01908737,5.24746884 6.99396899,5.15236892 C6.96879786,5.05723334 6.87240231,5.00075105 6.77866098,5.02628218 Z M4.05320047,4.22771189 C3.98154801,4.26411926 3.93856372,4.34993365 3.94697017,4.43977028 L3.99940275,5 L3.60568244,4.66686018 C3.57406842,4.64011445 3.53677824,4.62672085 3.49948807,4.62672085 C3.46226974,4.62672085 3.42505142,4.64007298 3.39349128,4.66669431 L2.99939377,4.99919141 L3.05250891,4.43910682 C3.06104111,4.34924946 3.01814663,4.2633936 2.94654805,4.22688257 L2.5,3.99921214 L2.94681749,3.77222591 C3.01846995,3.73583928 3.06145424,3.65002488 3.05304779,3.56018826 L3.00061522,3 L3.39433552,3.33313982 C3.45747375,3.38656908 3.54333456,3.38661055 3.60650872,3.33330569 L4.00058827,3.00078786 L3.94749109,3.56089318 C3.93894093,3.65072981 3.98185337,3.73658567 4.05343398,3.7730967 L4.5,4.00076713 L4.05320047,4.22771189 Z" id="Shape"></path>
        </g>
        <g id="62244-copy-6" transform="translate(5.000000, 38.000000)" fill="#FFFFFF" fill-rule="nonzero">
            <path d="M6.77866098,5.02628218 L5.97634907,5.24433093 L5.43562699,4.92765212 L6.32243441,4.68662178 C6.41619332,4.66110847 6.471844,4.56336986 6.44670803,4.46826994 C6.42158964,4.37317002 6.32517652,4.31665207 6.23141761,4.34220104 L5.00504614,4.67549648 L4.54057567,4.40349716 C4.52489645,4.39433305 4.50844382,4.38789678 4.49169237,4.38402788 L4.98511314,4.16376834 C5.04884951,4.13527759 5.09003382,4.07134277 5.09008656,4.00070425 C5.09013929,3.93008355 5.04906044,3.86604176 4.98534165,3.83749752 L4.49070802,3.61586514 C4.50779345,3.61201408 4.52463279,3.60582741 4.54057567,3.59646718 L5.00508129,3.32445003 L6.23148792,3.65772765 C6.24672769,3.66186398 6.26202021,3.66386083 6.27710179,3.66386083 C6.35470688,3.663843 6.42573796,3.61131874 6.44676077,3.53165874 C6.47189673,3.43654099 6.41626363,3.33878455 6.32248714,3.3133069 L5.43566214,3.07229439 L5.97636665,2.75565124 L6.77869614,2.97368216 C6.79391834,2.97781849 6.80921085,2.97981534 6.82429243,2.97981534 C6.90189752,2.97979751 6.9729286,2.92727325 6.99396899,2.84761325 C7.01908737,2.7524955 6.96345427,2.65473906 6.86967779,2.62926141 L6.40696508,2.50351343 L6.85094007,2.24351303 C6.93501372,2.19426931 6.9638234,2.08524494 6.91527408,1.9999688 C6.86672475,1.91469266 6.75923773,1.88545309 6.67516408,1.93471464 L6.23115394,2.19473287 L6.35512874,1.72538427 C6.38024713,1.63026652 6.32463161,1.53251008 6.23083755,1.50703243 C6.13706106,1.48153695 6.04070066,1.53798358 6.01558227,1.63310133 L5.80062582,2.44687068 L5.25990374,2.76353166 L5.49753529,1.86404045 C5.52268883,1.76894053 5.46703816,1.67118409 5.37326167,1.64568861 C5.2794676,1.62015747 5.18310721,1.67663977 5.15797124,1.77175752 L4.82935804,3.0156873 L4.36487,3.28768662 C4.34936656,3.29677941 4.33579665,3.30790471 4.32419543,3.32052765 L4.38281673,2.77718868 C4.39039267,2.70696022 4.35638002,2.63881776 4.29607128,2.60344501 C4.23574496,2.56809009 4.16054799,2.57217293 4.10435241,2.61385715 L3.66781275,2.93754276 C3.67301572,2.92069435 3.67584571,2.90275837 3.67584571,2.88416272 L3.67584571,2.34014624 L4.57362156,1.42949408 C4.6422445,1.35987181 4.6422445,1.24697854 4.57362156,1.17733844 C4.50498103,1.107734 4.39367968,1.107734 4.32502158,1.17733844 L3.67581056,1.83581714 L3.67581056,1.20260214 L4.26313086,0.606845893 C4.3317538,0.537223623 4.3317538,0.424330354 4.26313086,0.354690254 C4.19449033,0.285085813 4.08318898,0.285085813 4.01453088,0.354690254 L3.67579298,0.698290867 L3.67579298,0.178290065 C3.67579298,0.0798382909 3.59708049,0 3.50001699,0 C3.40293592,0 3.32424101,0.0798382909 3.32424101,0.178290065 L3.32424101,0.698308696 L2.98550311,0.354725912 C2.91686259,0.285121471 2.80556123,0.285121471 2.73690313,0.354725912 C2.66826261,0.424348183 2.66826261,0.537241452 2.73690313,0.606881551 L3.32424101,1.20260214 L3.32424101,1.83588845 L2.67502999,1.17742759 C2.60638946,1.10782315 2.49508811,1.10782315 2.42644759,1.17742759 C2.35780707,1.24704986 2.35780707,1.35994313 2.42644759,1.42958322 L3.32422343,2.34016407 L3.32422343,2.88418055 C3.32422343,2.90215218 3.32689523,2.91946415 3.3317818,2.93583118 L2.89768543,2.61305484 C2.841525,2.57128148 2.76632803,2.56712732 2.70598414,2.60237527 C2.64564024,2.63765887 2.61152212,2.70576568 2.61901018,2.77599413 L2.67719203,3.32193614 C2.66530957,3.30872485 2.65128265,3.29708251 2.63519915,3.28766879 L2.17071111,3.01565164 L1.84208032,1.77172186 C1.81696194,1.67660411 1.72058396,1.62013965 1.6267899,1.64565295 C1.53303099,1.67114843 1.47738031,1.76890488 1.5024987,1.8640048 L1.74014783,2.763496 L1.19942574,2.44685285 L0.984451715,1.63306568 C0.959333327,1.53796575 0.862920199,1.48150129 0.769161288,1.5070146 C0.6753848,1.53251008 0.619751701,1.63026652 0.644870089,1.72538427 L0.768862469,2.19469721 L0.324887486,1.93469681 C0.24083141,1.88548875 0.133326817,1.91467483 0.0847774898,1.99995097 C0.0362281627,2.08522711 0.0650378467,2.19425148 0.1491115,2.2434952 L0.593121639,2.50351343 L0.130391358,2.62927924 C0.0366324475,2.65477472 -0.0190182294,2.75253116 0.00610015885,2.84763108 C0.0271405443,2.92729108 0.0981540423,2.97983317 0.175776717,2.97983317 C0.190823142,2.97983317 0.206150808,2.97785415 0.221390586,2.97369999 L1.02368491,2.75566907 L1.564407,3.07231222 L0.677582,3.31336039 C0.583823089,3.33885587 0.528172413,3.43661231 0.553290801,3.53171223 C0.574331186,3.61137223 0.645344684,3.66391431 0.722967359,3.66391431 C0.738013784,3.66391431 0.75334145,3.66193529 0.768581228,3.65778114 L1.9949527,3.32448569 L2.45942316,3.59648501 C2.47485629,3.60552432 2.49111557,3.6116575 2.50760336,3.61554422 L2.01500874,3.83542936 C1.95127237,3.86390228 1.91008805,3.92785493 1.91003532,3.99849345 C1.90998259,4.06911414 1.95106144,4.13315593 2.01478023,4.16168235 L2.51009938,4.38363565 C2.49273271,4.38745105 2.47562971,4.39395864 2.45940558,4.4034615 L1.99489997,4.67546082 L0.76849334,4.34220104 C0.674716851,4.31665207 0.578338879,4.37313436 0.55322049,4.46826994 C0.528084525,4.56338769 0.583735201,4.66114413 0.67751169,4.68662178 L1.56431911,4.92763429 L1.0236146,5.24429528 L0.221302698,5.02626436 C0.127508632,5.00075105 0.0311482367,5.05719768 0.00602984846,5.15233326 C-0.0190885398,5.24743318 0.0365621371,5.34520745 0.130321048,5.37066727 L0.593033751,5.49643308 L0.149058768,5.75643349 C0.0649851139,5.8056772 0.0361754299,5.91470158 0.084724757,5.99997771 C0.11727847,6.05715534 0.176356778,6.0891584 0.237104959,6.0891584 C0.266916566,6.0891584 0.297150035,6.08142062 0.324834753,6.06523188 L0.768844892,5.80521365 L0.644852512,6.27454441 C0.619716546,6.36964433 0.675367223,6.46740078 0.769143711,6.49291408 C0.784383489,6.49703258 0.799693577,6.49904726 0.814757579,6.49904726 C0.892362676,6.49904726 0.963393752,6.44650518 0.984434137,6.36682735 L1.19940817,5.55305801 L1.74013025,5.23639703 L1.50251628,6.1358704 C1.47738031,6.23097032 1.53303099,6.32874459 1.62680748,6.35424007 C1.64204725,6.35835857 1.65735734,6.36037325 1.67242134,6.36037325 C1.75002644,6.36037325 1.82105752,6.30783117 1.8420979,6.22817117 L2.17071111,4.98422356 L2.63518157,4.71222424 C2.65070259,4.70313144 2.66429007,4.69198831 2.67590887,4.67934755 L2.61735788,5.22195553 C2.60978194,5.29218399 2.64379459,5.36034428 2.70410333,5.39571703 C2.7643945,5.43103629 2.83959146,5.42695345 2.8958222,5.38530489 L3.33259037,5.06145881 C3.32719405,5.07859249 3.32422343,5.0967959 3.32422343,5.11574814 L3.32422343,5.65980027 L2.42646516,6.57041678 C2.35782464,6.64005687 2.35782464,6.75295014 2.42646516,6.82260807 C2.46079421,6.85739246 2.50577529,6.8748114 2.55075636,6.8748114 C2.59573744,6.8748114 2.64073609,6.85739246 2.67504756,6.82260807 L3.32424101,6.16414721 L3.32424101,6.79743351 L2.73693829,7.39317194 C2.66829777,7.46281204 2.66829777,7.57566965 2.73693829,7.64532757 C2.77126734,7.68014762 2.81624841,7.69756656 2.86122949,7.69756656 C2.90621056,7.69756656 2.95120921,7.68014762 2.98552069,7.64532757 L3.32424101,7.30170913 L3.32424101,7.82170994 C3.32424101,7.92017954 3.40293592,8 3.50001699,8 C3.59708049,8 3.67579298,7.92017954 3.67579298,7.82170994 L3.67579298,7.30170913 L4.01453088,7.64529192 C4.0831714,7.71489636 4.19447276,7.71489636 4.26314843,7.64529192 C4.33177138,7.57565182 4.33177138,7.46275855 4.26314843,7.39313628 L3.67581056,6.79739786 L3.67581056,6.16411155 L4.32498643,6.82257241 C4.39362695,6.89217685 4.5049283,6.89217685 4.57360398,6.82257241 C4.6422445,6.75296797 4.6422445,6.6400747 4.57360398,6.57041678 L3.67582814,5.65983593 L3.67582814,5.11581945 C3.67582814,5.09747341 3.67308603,5.0797692 3.6680061,5.06309908 L4.10250676,5.38617851 C4.13330271,5.40905312 4.16981139,5.42067764 4.2064431,5.42067764 C4.23664142,5.42067764 4.2669452,5.41279722 4.29420805,5.39684025 C4.35455195,5.36155665 4.38867007,5.29344985 4.38118201,5.22323922 L4.3231232,4.67834912 C4.33495292,4.69143561 4.34889196,4.70297098 4.36487,4.71229555 L4.82937562,4.98433053 L5.15802398,6.22827814 C5.17904678,6.30793814 5.25006028,6.3604624 5.32768296,6.3604624 C5.34272938,6.36044457 5.35807462,6.3585012 5.3733144,6.35431139 C5.46707331,6.32881591 5.52272399,6.2310773 5.49758802,6.13594172 L5.25993889,5.23648617 L5.80066098,5.55314715 L6.01563501,6.36689867 C6.03665781,6.44659433 6.10767131,6.49911858 6.18529399,6.49911858 C6.20034041,6.49908292 6.21568566,6.49713956 6.23092543,6.4929854 C6.32468434,6.46747209 6.38033502,6.36971565 6.35519906,6.27461573 L6.23120668,5.80528496 L6.67518166,6.06530319 C6.70286638,6.08149193 6.73308227,6.08922972 6.76291145,6.08922972 C6.82365963,6.08922972 6.88273794,6.05722665 6.91529165,6.00004903 C6.96384098,5.91477289 6.9350313,5.80574852 6.85095764,5.7565048 L6.40694751,5.49648657 L6.86967779,5.37070293 C6.9634367,5.34520745 7.01908737,5.24746884 6.99396899,5.15236892 C6.96879786,5.05723334 6.87240231,5.00075105 6.77866098,5.02628218 Z M4.05320047,4.22771189 C3.98154801,4.26411926 3.93856372,4.34993365 3.94697017,4.43977028 L3.99940275,5 L3.60568244,4.66686018 C3.57406842,4.64011445 3.53677824,4.62672085 3.49948807,4.62672085 C3.46226974,4.62672085 3.42505142,4.64007298 3.39349128,4.66669431 L2.99939377,4.99919141 L3.05250891,4.43910682 C3.06104111,4.34924946 3.01814663,4.2633936 2.94654805,4.22688257 L2.5,3.99921214 L2.94681749,3.77222591 C3.01846995,3.73583928 3.06145424,3.65002488 3.05304779,3.56018826 L3.00061522,3 L3.39433552,3.33313982 C3.45747375,3.38656908 3.54333456,3.38661055 3.60650872,3.33330569 L4.00058827,3.00078786 L3.94749109,3.56089318 C3.93894093,3.65072981 3.98185337,3.73658567 4.05343398,3.7730967 L4.5,4.00076713 L4.05320047,4.22771189 Z" id="Shape"></path>
        </g>
        <g id="Cloud-595b40b85ba036ed117de24e" transform="translate(2.000000, 3.000000)" fill="#FFFFFF" fill-rule="nonzero">
            <path d="M26.68,0 C21.8820914,0 17.8224774,2.87496335 15.87,6.94041708 C14.8310633,6.22467013 13.6273832,5.7020854 12.27625,5.7020854 C8.84915322,5.7020854 6.11442046,8.42171519 5.9225,11.8073486 C2.49471883,13.0469455 0,16.2499942 0,20.101291 C0,25.0116541 3.98082537,29 8.88375,29 L37.80625,29 C42.3190395,29 46,25.312034 46,20.7924528 C46,16.5993544 42.7873655,13.2665074 38.72625,12.7864945 C38.7406848,12.5643339 38.78375,12.3545663 38.78375,12.1241311 C38.78375,5.44254306 33.3512935,0 26.68,0 Z M26.68,1.84309831 C32.3569465,1.84309831 36.94375,6.43852943 36.94375,12.1241311 C36.94375,12.5435263 36.9106576,12.9600158 36.8575,13.3912612 L36.71375,14.428004 L37.74875,14.428004 L37.80625,14.428004 C41.3249197,14.428004 44.16,17.268753 44.16,20.7924528 C44.16,24.3161527 41.3250605,27.1569017 37.80625,27.1569017 L8.88375,27.1569017 C4.97491463,27.1569017 1.84,24.0156825 1.84,20.101291 C1.84,16.8423531 4.03343226,14.1015553 7.015,13.2760675 L7.705,13.1032771 L7.67625,12.3545184 C7.67165,12.2254877 7.67625,12.1589831 7.67625,12.1529295 C7.67625,9.59331381 9.71986716,7.54518371 12.27625,7.54518371 C13.5540527,7.54518371 14.7191821,8.06119779 15.55375,8.89870904 L16.56,9.93545184 L17.04875,8.58192651 C18.4955429,4.66545595 22.2574478,1.84309831 26.68,1.84309831 Z" id="Shape"></path>
        </g>
    </g>
</svg>