<svg viewBox="0 0 50 50" version="1.1" xmlns="http://www.w3.org/2000/svg" xmlns:xlink="http://www.w3.org/1999/xlink">
    <g id="thunderstorm" stroke="none" stroke-width="1" fill="none" fill-rule="evenodd">
        <g id="thunderstorm-clouds-svgrepo-com" transform="translate(6.000000, 5.000000)" fill="#FFFFFF" fill-rule="nonzero">
            <path d="M26.5326429,27.0447977 C25.9816184,27.0447977 25.5317919,26.6124005 25.5317919,26.080715 C25.5317919,25.7295423 26.0482546,24.7965346 26.5326429,24.0447977 C27.0161147,24.7965346 27.5317919,25.7295423 27.5317919,26.080715 C27.5317919,26.6125269 27.0836673,27.0447977 26.5326429,27.0447977 Z M17.6736148,27.4047258 C17.6191406,27.4659828 17.6059671,27.5530009 17.640147,27.6285037 C17.6729028,27.7027005 17.7467219,27.7497117 17.8286113,27.7497117 L20.1308899,27.7497117 L10.5317919,38.0447977 L16.2201375,29.8548853 C16.2646426,29.792085 16.2696272,29.7093407 16.2340231,29.6416731 C16.198063,29.5732933 16.1274482,29.5304371 16.0508994,29.5304371 L11.8452265,29.5304371 L17.273781,23.0447977 L21.5317919,23.0447977 L17.6736148,27.4047258 Z M28.7627613,22.0447977 L6.29975832,22.0447977 C2.56770996,22.0447977 -0.468208092,18.9582634 -0.468208092,15.1631884 C-0.468208092,11.6279397 2.13562908,8.68556627 5.58931992,8.31957311 L5.89924986,8.24562902 L5.89924986,7.9267677 C5.89924986,4.13277483 8.93623215,1.04479769 12.6679258,1.04479769 C15.2265919,1.04479769 17.5371722,2.49097567 18.699912,4.81823049 L18.8304587,5.07998053 L19.1077519,4.99762004 C19.7295038,4.81354135 20.3635535,4.72108119 20.9926368,4.72108119 C23.451501,4.72108119 25.720103,6.08237376 26.915243,8.27352338 L27.0423604,8.50485414 L27.2950579,8.44714168 C31.636442,7.47432608 35.5317919,10.8802027 35.5317919,15.1623467 C35.5317919,18.9582634 32.4955191,22.0447977 28.7627613,22.0447977 Z M35.9896919,13.0447977 C35.0520988,9.50311771 31.480299,6.98698868 27.5130471,7.7186683 C26.1825712,5.52743547 23.7828795,4.17629632 21.1880311,4.17629632 C20.5932178,4.17629632 19.9943168,4.25011015 19.4059269,4.39554647 C18.9227652,3.53676866 18.2814693,2.80255169 17.5317919,2.21503971 C18.3611203,0.915685583 19.8177298,0.0447976879 21.4825764,0.0447976879 C23.2526513,0.0447976879 24.8509274,1.0161416 25.6560802,2.57926484 L25.7850168,2.83034721 L26.0592406,2.75168934 C28.1701097,2.14606991 30.4220615,3.10426573 31.4592768,4.95295625 L31.5833081,5.17485908 L31.8337067,5.12019071 C34.8479493,4.46912964 37.5317919,6.75562845 37.5317919,9.63148458 C37.5305072,10.9858531 36.9335916,12.2003213 35.9896919,13.0447977 Z" id="Shape"></path>
            <path d="M10,27.3270785 C10,26.5287039 8.96635097,24.7721556 8.75799443,24.4275808 L8.50038997,24 L8.24211699,24.4275808 C8.0356546,24.7721556 7,26.5287039 7,27.3270785 C7,28.2478498 7.67342618,28.9999994 8.49961003,28.9999994 C9.32791086,29.000745 10,28.2478498 10,27.3270785 Z" id="Path"></path>
            <path d="M21.0870395,31.0001133 C21.0514778,31.0001133 21.0181609,31.0157459 20.9955953,31.042933 L17.5841594,34.9493866 C17.553678,34.9834838 17.5469437,35.0310613 17.5667921,35.0711624 C17.5869949,35.1112634 17.6291726,35.1370912 17.6764306,35.1370912 L20.1399894,35.1370912 L16.0216922,40.8189789 C15.9851854,40.8685954 15.9961729,40.9359969 16.0440216,40.9747386 C16.0667054,40.9917306 16.0926973,41 16.1196344,41 C16.1516517,41 16.1842597,40.9870861 16.2069435,40.963977 L23.094795,33.8828574 C23.127403,33.8487602 23.1366183,33.7992569 23.1168881,33.7576832 C23.0977486,33.7155431 23.0545076,33.6897153 23.0068952,33.6897153 L21.6632325,33.6897153 L23.9702492,31.191896 C24.0015576,31.1577987 24.0085282,31.1088619 23.9893887,31.0680812 C23.9702492,31.0258278 23.9270081,31 23.8808135,31 L21.0870395,31 L21.0870395,31.0001133 Z" id="Path"></path>
        </g>
    </g>
</svg>