<svg viewBox="0 0 50 50" version="1.1" xmlns="http://www.w3.org/2000/svg" xmlns:xlink="http://www.w3.org/1999/xlink">
    <g id="tornado" stroke="none" stroke-width="1" fill="none" fill-rule="evenodd">
        <path d="M45.7629222,33.962898 L38.5254753,23.6093963 C38.3258028,23.3234294 38.0197977,23.1282348 37.6758412,23.0671512 C37.3318847,23.0057264 36.9773291,23.0838724 36.6908127,23.2835032 L26.3177542,30.5077495 C26.2685199,30.5422157 26.2274913,30.5824831 26.1844113,30.622068 C26.2616818,30.0115731 26.0661121,29.3543271 25.5170125,28.740761 C25.0438159,28.2114834 24.4256515,27.8582905 23.7233785,27.6402322 C24.7467004,27.3447104 25.6387307,26.8546765 26.1119274,26.0510345 C27.0685778,24.4277119 24.7812328,23.6100788 23.6375603,23.3848543 C21.3290171,22.929969 18.8611462,23.0060676 16.5443974,23.3500468 C15.1576303,23.5561614 13.6084584,23.8755707 12.3051162,24.5607991 C11.8179015,24.3529783 11.3467562,24.1236588 10.9005701,23.8673807 C9.47790304,23.0497475 9.75245283,22.2061794 10.6547403,21.4748823 C10.9282644,21.5588296 11.1966599,21.6373169 11.4547982,21.710003 C14.7982881,22.6590171 18.3947877,22.9576102 21.8579443,22.8470455 C24.8424338,22.7514957 28.7979337,22.3563291 31.199817,20.4405559 C33.0481559,18.9667004 30.7840604,17.7286482 29.2837809,17.2218931 C33.4820334,16.5039047 38.191776,15.0286843 35.500983,12.3184828 C34.3015799,11.1104605 31.185457,10.329341 27.3790276,10.0092493 C21.3932953,9.19127484 15.3333695,7.57409472 9.27720476,8.10473728 C7.22098757,8.28457563 4.92030824,8.88926927 4.15854371,11.0258307 C3.64431846,12.4672675 4.45394971,13.6800673 5.53847264,14.5270479 C4.85295294,15.4982432 4.71379757,16.6250482 5.3203372,17.9166765 C5.92414158,19.2001149 7.13893035,20.0549442 8.47783066,20.6688516 C6.77480143,23.157241 8.16532942,24.8713359 10.4875488,26.0158859 C8.34824864,28.6639799 10.6978204,30.5353907 13.4132306,31.6690207 C13.3995544,32.069306 13.4987069,32.4846063 13.7558195,32.8999067 C14.4625373,34.0444566 15.861271,34.7064801 17.3530029,35.1354304 C17.223079,35.661978 17.4733535,36.1564481 17.6897794,36.6212296 C18.0843379,37.4678689 18.3065762,38.3397607 18.433423,39.2645461 C18.6160003,40.5940532 20.6328984,40.0258732 20.4516887,38.7086511 C20.3231324,37.773287 20.0653359,36.9106089 19.7077032,36.0568033 C20.3067209,36.0049334 20.911551,35.9834347 21.5098849,35.9441911 C22.6217603,35.8718462 23.0142673,34.1028102 21.7875119,33.8922594 C21.452103,33.8349296 19.2683552,33.4063205 17.5608812,32.8794317 C17.5988326,32.8862567 17.6395194,32.8937642 17.6761032,32.9002479 C19.809249,33.2565121 22.3407143,33.5039178 24.3969315,32.6654684 C24.9809054,32.427959 25.4445287,32.072036 25.7573718,31.6495695 C25.7689966,31.8881027 25.8425062,32.1262946 25.9895254,32.3375279 C26.4059658,32.9330078 27.2272218,33.0787213 27.8241881,32.6630797 L28.8649471,31.9386076 L27.5140801,39.5109281 L41.5232991,42 L42.8738242,34.4280207 L43.6003725,35.4671247 C43.8085927,35.7643527 44.1183587,35.9499923 44.4500067,36.0086872 C44.7819965,36.0680646 45.1365521,36.0004972 45.4350352,35.7926764 C46.0330272,35.3783999 46.1793626,34.5587192 45.7629222,33.962898 Z M23.8683462,20.6074267 C20.4140791,21.030917 16.8141605,20.7538227 13.4156239,20.0337868 C14.1743113,19.7461137 14.8567539,19.5420466 15.2157542,19.4550281 C19.0775721,18.5159102 23.3418124,18.3507455 27.2754304,18.9080055 C27.9011167,18.9967303 28.5182554,19.131865 29.1234274,19.3099971 C27.5906669,20.1201228 25.5122259,20.4060897 23.8683462,20.6074267 Z M24.8051661,11.9796223 C25.5847097,11.9973673 26.3963924,12.022961 27.2169646,12.0761959 L29.0003415,12.2430667 C30.5826783,12.4440625 32.1393721,12.803398 33.5093858,13.4749765 C33.6119574,13.5251401 34.0065158,13.6804085 33.9890787,13.7664033 C33.9712996,13.8523981 33.7432489,13.9534079 33.5363963,14.0677264 C32.0128673,14.907882 30.0137482,15.1102428 28.3267885,15.361061 C22.7530518,16.1906379 16.6903908,15.8043438 11.2103361,14.5734578 C10.7289338,14.4652818 10.0246093,14.3246871 9.29190667,14.119255 C10.8055205,13.4009254 12.7311299,13.0569462 13.8221491,12.8269442 C17.4094172,12.0700534 21.1464398,11.8966988 24.8051661,11.9796223 Z M6.12449796,12.0642521 C5.5692441,10.2713287 9.80715764,10.1409715 10.6444832,10.1146953 C12.4128163,10.0583891 14.175337,10.1624702 15.9337549,10.3504985 C12.2938333,10.8691973 9.02180166,11.7936415 7.01071594,13.1490835 C6.58333458,12.8515141 6.25784094,12.4959324 6.12449796,12.0642521 Z M7.11362937,16.4390673 C7.16047037,16.1343318 7.26919619,15.8565549 7.42715634,15.6016417 C9.67210513,16.5803445 12.2319485,16.9700511 14.6201555,17.2802467 C14.7528147,17.2976504 14.8858158,17.3119829 15.018475,17.3283628 C13.2880933,17.6648346 11.4722354,18.1883109 10.0680312,19.1335713 C8.45560683,18.5483289 6.92489776,17.6706358 7.11362937,16.4390673 Z M15.8968291,25.5732856 C18.1947732,25.0736967 20.7617966,24.9924794 23.0816226,25.3995897 C23.2368475,25.4268897 23.390021,25.4630621 23.5425107,25.5005995 C22.5725259,25.8913299 21.1792627,25.9158998 20.3976677,25.9486598 C18.9144834,26.0124734 17.3266762,25.9002024 15.7737433,25.6009268 C15.8199005,25.5900068 15.8629805,25.5804518 15.8968291,25.5732856 Z M14.2129466,29.9412758 C13.2433038,29.5638541 12.3875153,29.0454966 11.9078225,28.312152 C11.5409583,27.750797 11.9091901,27.2477956 12.550604,26.8290828 C14.4765554,27.4419664 16.578246,27.7876519 18.0426254,27.9429203 C16.884251,28.2913358 15.8390472,28.7554347 15.0947198,29.2208987 C14.7726452,29.4229182 14.4704011,29.6665702 14.2129466,29.9412758 Z M24.1743513,30.3470211 C23.8724491,31.7147481 19.060135,31.0117746 18.2340923,30.8865362 C17.77423,30.8165801 17.230259,30.731609 16.6558584,30.6186555 C17.7174737,30.0787992 19.1726218,29.8423135 20.0133664,29.7010363 C20.5470802,29.6112878 24.3637667,29.4870731 24.1743513,30.3470211 Z M40.1033673,39.9678608 L37.0190415,39.420497 L37.7787546,35.1637541 L33.3975829,34.3857058 L32.6382117,38.6417663 L29.5538859,38.0940613 L30.9047529,30.5217407 L37.1188778,26.194018 L41.4549181,32.3962228 L40.1033673,39.9678608 Z" id="Shape" fill="#FFFFFF" fill-rule="nonzero"></path>
        <polygon id="Path" fill="#FFFFFF" fill-rule="nonzero" points="47 19.8050832 43.1445524 19.0652465 42.8477618 15 40.0811358 18.0961175 36 15.4300908 37.6548109 20.4309441 38.6880949 20.1232096 37.9742411 17.9660511 40.2746334 19.4678491 41.9517301 17.5909368 42.1215269 19.9160419 44.8333226 20.4359725 43.20009 22.0175535 44.2744083 24.2608643 40.9630178 23.1884866 40.6131657 24.1592918 46.2956972 26 44.4926679 22.2331017"></polygon>
    </g>
</svg>