<svg viewBox="0 0 50 50" version="1.1" xmlns="http://www.w3.org/2000/svg" xmlns:xlink="http://www.w3.org/1999/xlink">
    <defs></defs>
    <g id="WindSpeed" stroke="none" stroke-width="1" fill="none" fill-rule="evenodd" opacity="0.66">
        <g id="weather-copy" transform="translate(13.000000, 19.000000)" fill="#FFFFFF" fill-rule="nonzero">
            <path d="M23.8910408,2.39167084 C23.1002019,1.30187171 21.8897241,0.492417371 20.57288,0.169938413 C20.131019,0.0573882268 19.670265,0 19.2035186,0 C18.2438088,0 17.351098,0.250248949 16.625011,0.721145735 C15.4534842,1.45169127 14.6517424,2.69262922 14.4811236,4.03226502 C14.2565726,5.4046352 14.8437509,6.861686 15.9392068,7.65687574 C16.5679994,8.1281848 17.3932117,8.39822279 18.2031099,8.39822279 C18.8133426,8.39822279 19.3773833,8.24889797 19.8323112,7.96814091 C21.0754147,7.22679386 21.6213116,5.61184298 21.0496138,4.36777177 C20.7562328,3.73542937 20.1817885,3.24251727 19.5136286,3.05056354 C19.3171257,2.99317532 19.1179595,2.96134794 18.920125,2.95458668 L18.8961551,3.40264361 C19.0604485,3.41426968 19.2220786,3.44749878 19.3773833,3.50175374 C19.9007252,3.67845341 20.3375093,4.08660244 20.5462468,4.59740713 C20.650782,4.84270882 20.7037987,5.10953109 20.6978895,5.36876756 C20.6919802,5.65084389 20.643125,5.91008036 20.5435003,6.1818499 C20.3465812,6.69488085 19.9636461,7.14384478 19.4883271,7.41602659 C18.6336519,7.92996454 17.2724469,7.77297146 16.3946341,7.07202705 C15.5286397,6.38946995 15.102176,5.26875044 15.282366,4.14258894 C15.4321777,3.03662876 16.1021685,2.02268763 17.0767763,1.42885141 C17.5389451,1.13910683 18.0812632,0.950368825 18.6471349,0.881684352 C18.8820895,0.852083241 19.1980255,0.847630706 19.5031418,0.870882832 C19.7941925,0.896443681 20.0884891,0.945339109 20.3546544,1.01212713 C21.466423,1.29552273 22.4872227,1.99028307 23.1567974,2.92127512 C23.8530053,3.85498817 24.1825909,4.97933567 24.108767,6.17632545 C24.0599118,7.33876686 23.6574179,8.5101958 22.9752757,9.47623095 C22.2962129,10.4458116 21.3184425,11.2369611 20.2197407,11.7047246 C19.7154582,11.9235585 19.1319419,12.0818708 18.485921,12.1743022 C18.0861736,12.2303711 17.6570466,12.2402656 17.1373668,12.2478514 L2.4816294,12.4407122 L0,12.536689 L0.00907192556,12.9851582 L16.5728267,12.9959597 C16.7638365,12.9959597 16.9553456,12.9959597 17.1454399,12.9977737 L17.4994115,13 C17.8185935,13 18.1965349,12.9941457 18.5803855,12.9511046 C19.2761772,12.8659292 19.9339335,12.6945891 20.5332631,12.4425261 C21.7754511,11.9308145 22.8872198,11.0486354 23.6631607,9.95842398 C24.4476742,8.86953185 24.9175833,7.5375643 24.985914,6.21186328 C25.0820431,4.85474715 24.6827952,3.46176338 23.8910408,2.39167084 Z" id="Shape"></path>
            <path d="M8.93726659,11.9935099 C8.99292699,11.9912042 9.05990389,11.9902648 9.12419836,11.9902648 L9.58063042,11.9958156 C9.7087164,11.9981213 9.82867127,12 9.94904527,12 C10.1838416,12 10.4948357,11.9935099 10.8240201,11.9447487 C11.4632764,11.8383451 12.068751,11.5629426 12.5729638,11.1495399 C13.6102255,10.3167567 14.1550939,8.92932565 13.9612884,7.61490828 C13.7625372,6.2786295 12.6240138,5.16429529 11.3168326,5.02313547 C10.6010432,4.93346953 9.94032738,5.10673829 9.43879699,5.50297638 C8.89803607,5.91492735 8.54286571,6.53550109 8.46541057,7.19740656 C8.36238853,7.88715117 8.61680015,8.6140431 9.10785231,9.04512281 C9.59429404,9.4966122 10.4013699,9.67961612 10.9844629,9.47526316 C11.4121426,9.32991893 11.7741029,8.98013635 11.9537418,8.53838212 L11.5406477,8.34333734 C11.3883361,8.64384636 11.1134709,8.8663033 10.8061652,8.93743828 C10.7040652,8.96109301 10.6119405,8.9722799 10.5239233,8.9722799 C10.161041,8.9722799 9.78944075,8.81293071 9.55229726,8.55469279 C9.23082491,8.21285204 9.11229508,7.77673396 9.20894635,7.29407499 C9.2964606,6.8602626 9.57006835,6.43106161 9.92113125,6.17333607 C10.2940727,5.90211793 10.699371,5.80732822 11.2077751,5.88256221 C12.1401706,6.00561805 12.9348402,6.81705216 13.0583996,7.78083298 C13.2257161,8.74879821 12.8172325,9.83145046 12.0379868,10.47807 C11.6536451,10.8082969 11.1835494,11.0326325 10.6769894,11.1274223 C10.4700233,11.168327 10.2643983,11.1761835 10.0359727,11.1822466 L1.27566263,11.4172567 C0.860389096,11.4542333 0.4303622,11.4863422 0,11.5183658 L0.0159269221,11.9824084 L8.93726659,11.9935099 Z" id="Shape"></path>
        </g>
    </g>
</svg>