<svg width="50px" height="50px" viewBox="0 0 50 50" version="1.1" xmlns="http://www.w3.org/2000/svg" xmlns:xlink="http://www.w3.org/1999/xlink">
    <g id="wind" stroke="none" stroke-width="1" fill="none" fill-rule="evenodd">
        <path d="M41.4357175,19.128996 C40.7431398,11.7739668 34.533232,6 27.0000439,6 C19.4668558,6 13.257036,11.7740547 12.5642825,19.128996 C8.83578904,19.8075107 6,23.0787954 6,27.0000303 L8.99996861,27.0000303 C8.99996861,24.242993 11.2429358,22.0000273 13.9999749,22.0000273 L15.5000031,22.0000273 L15.5,20.5 C15.5000031,14.1588757 20.6589156,9.00005455 26.9999561,9.00005455 C33.3409966,9.00005455 38.4999969,14.1588757 38.5,20.5 L38.4999969,22.0000273 L40.0000251,22.0000273 C42.7570642,22.0000273 45.0000314,24.242993 45.0000314,27.0000303 C45.0000314,29.7570676 42.7570642,32.0000333 40.0000251,32.0000333 L32.5000596,32.0000333 L32.5000596,35 L40.0000251,35 C44.4112525,35 48,31.4111669 48,27.0000303 C48,23.0787954 45.164211,19.8075107 41.4357175,19.128996 Z" id="Path" fill="#FFFFFF" fill-rule="nonzero"></path>
        <path d="M21.3828947,33 L3,33 L3,35.999984 L21.3828947,35.999984 C22.7906941,35.999984 23.9360346,37.1214734 23.9360346,38.4999561 C23.9360346,39.8784387 22.7906941,40.9999281 21.3828947,40.9999281 C19.9750953,40.9999281 18.8297548,39.8784387 18.8297548,38.4999561 L15.7659689,38.4999561 C15.7659689,41.5326355 18.285718,44 21.3829845,44 C24.4802509,44 27,41.5327234 27,38.4999561 C26.9999102,35.4673645 24.4800714,33 21.3828947,33 Z" id="Path" fill="#FFFFFF" fill-rule="nonzero"></path>
        <path d="M27.4067691,21 C24.322707,21 21.8135381,23.4672766 21.8135381,26.5000439 L24.8643507,26.5000439 C24.8643507,25.1215613 26.0048414,24.0000719 27.4066797,24.0000719 C28.8085179,24.0000719 29.9490086,25.1215613 29.9490086,26.5000439 C29.9490086,27.8785266 28.8085179,29.000016 27.4066797,29.000016 L3,29.000016 L3,32 L27.4067691,32 C30.4908311,32 33,29.5327234 33,26.4999561 C32.9999106,23.4672766 30.4908311,21 27.4067691,21 Z" id="Path" fill="#FFFFFF" fill-rule="nonzero"></path>
    </g>
</svg>